<?xml version="1.0" encoding="utf-8"?>
<!-- Generator: Adobe Illustrator 28.3.0, SVG Export Plug-In . SVG Version: 6.00 Build 0)  -->
<svg version="1.1" id="Layer_1" xmlns="http://www.w3.org/2000/svg" xmlns:xlink="http://www.w3.org/1999/xlink" x="0px" y="0px"
	 viewBox="0 0 288 144" style="enable-background:new 0 0 288 144;" xml:space="preserve">
<style type="text/css">
	.st0{fill:#D62128;}
	.st1{fill:#FFFFFF;}
	.st2{fill:#231F20;}
</style>
<g>
	<g>
		<g>
			<g>
				<polygon class="st0" points="80.3,35.7 61.6,35.7 36,108.3 53.3,108.3 70.9,53.8 77.6,74.1 69.2,74.1 65.1,86.4 81.7,86.4 
					84.3,94.1 101.6,94.1 				"/>
				<g>
					<path d="M119.6,81.7h20.6v12.4h-36.9V35.7h16.2V81.7z"/>
					<path d="M176.6,94.1l-18.3-25.6v25.6H142V35.7h16.2v25.2l18.1-25.2h18.7L173.7,64l22.5,30.1H176.6z"/>
					<path d="M214.2,35.7v33.9c0,3.1,0.7,5.6,2.2,7.3c1.5,1.7,3.7,2.6,6.7,2.6s5.2-0.9,6.8-2.6c1.5-1.7,2.3-4.2,2.3-7.2V35.7h16.2
						v33.9c0,5.4-1.1,9.9-3.4,13.7c-2.3,3.8-5.3,6.6-9.2,8.5c-3.9,1.9-8.2,2.9-13,2.9c-4.8,0-9-1-12.7-2.9c-3.7-1.9-6.7-4.7-8.8-8.5
						c-2.1-3.8-3.2-8.3-3.2-13.8V35.7H214.2z"/>
				</g>
			</g>
		</g>
	</g>
	<g id="oZXNS4.tif_00000015314879276313252940000009446854147359135876_">
		<g>
			<path d="M244.6,91c0-2,1.6-3.7,3.7-3.7c2,0,3.7,1.6,3.7,3.7c0,2-1.6,3.7-3.7,3.7C246.3,94.7,244.6,93,244.6,91z M248.3,94.4
				c1.9,0,3.4-1.5,3.4-3.4c0-1.9-1.5-3.4-3.4-3.4c-1.9,0-3.4,1.5-3.4,3.4C244.9,92.9,246.4,94.4,248.3,94.4z"/>
			<path d="M250.4,93.2c-0.4,0-0.7,0-1,0c0,0-0.1-0.1-0.1-0.1c-0.3-0.5-0.6-0.9-0.9-1.4c-0.2-0.3-0.6-0.4-0.9-0.3
				c0,0-0.1,0.1-0.1,0.1c0,0.5,0,1,0,1.5c0,0.2,0,0.2-0.2,0.2c-0.2,0-0.4,0-0.5,0c-0.1,0-0.1,0-0.1-0.1c0-1.4,0-2.8,0-4.1
				c0-0.1,0-0.1,0.1-0.1c0.8,0,1.6,0,2.5,0.1c0.6,0,0.9,0.4,1,0.9c0.1,0.5-0.1,1-0.5,1.3c-0.2,0.1-0.4,0.2-0.5,0.2
				c0.6,0.4,0.9,1,1.2,1.6C250.3,92.9,250.4,93,250.4,93.2z M248.1,89.5C248.1,89.5,248.1,89.5,248.1,89.5c-0.2,0-0.4,0-0.6,0
				c-0.1,0-0.1,0-0.1,0.1c0,0.3,0,0.6,0,0.9c0,0,0.1,0.1,0.1,0.1c0.4,0,0.8,0,1.2,0c0.3,0,0.5-0.2,0.5-0.6c0-0.3-0.2-0.5-0.5-0.5
				C248.5,89.5,248.3,89.5,248.1,89.5z"/>
		</g>
	</g>
</g>
</svg>
