<?xml version="1.0" encoding="utf-8"?>
<!-- Generator: Adobe Illustrator 26.3.1, SVG Export Plug-In . SVG Version: 6.00 Build 0)  -->
<svg version="1.1" id="Layer_1" xmlns="http://www.w3.org/2000/svg" xmlns:xlink="http://www.w3.org/1999/xlink" x="0px" y="0px"
	 viewBox="0 0 120 146" style="enable-background:new 0 0 120 146;" xml:space="preserve">
<style type="text/css">
	.st0{fill:none;}
	.st1{opacity:0.6;}
	.st2{fill:#CCCCCC;}
	.st3{fill:#032744;}
	.st4{fill:#1F5D9B;}
	.st5{opacity:0.6;fill:#CCCCCC;enable-background:new    ;}
	.st6{fill:#D1D1D1;}
	.st7{fill:#FCC015;}
	.st8{fill:#E5A70C;}
	.st9{fill:#F7F7F7;}
	.st10{fill:#FFFFFF;}
	.st11{fill:#FEE212;}
	.st12{fill:#F45B63;}
	.st13{fill:#E03F4F;}
	.st14{fill:#FD787B;}
	.st15{fill:#F2F2F2;}
	.st16{fill:#51CDF3;}
	.st17{fill:#8FEAFF;}
	.st18{fill:#DBDBDB;}
	.st19{fill:#D8D8D8;}
	.st20{fill:#E2E2E2;}
	.st21{fill:#EFEFEF;}
	.st22{fill:#F4F4F4;}
	.st23{fill:#8C8C8C;}
	.st24{fill:#B2B2B2;}
	.st25{fill:#FF7364;}
	.st26{fill:#EA5347;}
	.st27{fill:url(#SVGID_1_);}
	.st28{fill:#400CEA;}
	.st29{fill:#E8E8E8;}
	.st30{fill:#878787;}
	.st31{fill:#686868;}
	.st32{fill:#4F4F4F;}
	.st33{fill:#D11156;}
	.st34{fill:#E5E5E5;}
	.st35{fill:#FF3E7A;}
	.st36{fill:#5D21A3;}
	.st37{fill:#A247EA;}
	.st38{fill:#B7B7B7;}
	.st39{fill:#999999;}
	.st40{fill:#AFAFAF;}
	.st41{fill:#FFCE31;}
	.st42{fill:url(#SVGID_00000105390578119249782890000003497102371999841681_);}
	.st43{fill:#282828;}
	.st44{fill:#5B5B5B;}
	.st45{fill:#FFD629;}
	.st46{fill:#FFF42C;}
</style>
<rect class="st0" width="120" height="146"/>
<g class="st1">
	<path class="st2" d="M79,70.08L61.07,59.75l38.49-2.21l0.62,0.17L79,70.08z M72.07,62.08l6.93,4l8-4.62L72.07,62.08z"/>
</g>
<path class="st3" d="M78.89,69.47L61,59.14l38.56-1.86v0.26L78.89,69.47z M72,61.5l6.92,4l8-4.62L72,61.5z"/>
<path class="st4" d="M78.89,69.21L61,58.89l38.56-1.61L78.89,69.21z M71.97,61.21l6.92,4l8-4.62L71.97,61.21z"/>
<path class="st5" d="M49.63,68.71c0.48,0.22,1.04,0.19,1.5-0.07l38.26-22.08c0.44-0.26,0.49-0.65,0.11-0.87L69,33.83
	c-0.48-0.22-1.04-0.19-1.5,0.06L29.2,56c-0.45,0.26-0.49,0.64-0.11,0.87L49.63,68.71z"/>
<polygon class="st6" points="98.13,57.92 97.45,57.52 97.51,57.49 98.19,57.88 "/>
<polygon class="st6" points="98.13,57.92 97.83,57.74 97.89,57.71 98.19,57.88 "/>
<polygon class="st6" points="97.82,58.1 97.51,57.92 97.57,57.89 97.88,58.06 "/>
<polygon class="st6" points="97.5,58.28 97.19,58.11 97.25,58.07 97.56,58.25 "/>
<polygon class="st6" points="97.18,58.47 96.88,58.29 96.93,58.26 97.24,58.43 "/>
<polygon class="st6" points="96.86,58.65 96.56,58.47 96.62,58.44 96.92,58.62 "/>
<polygon class="st6" points="96.5,58.86 95.82,58.46 95.88,58.43 96.56,58.82 "/>
<polygon class="st6" points="96.5,58.86 96.2,58.68 96.26,58.65 96.56,58.82 "/>
<polygon class="st6" points="96.19,59.04 95.88,58.86 95.94,58.83 96.24,59.01 "/>
<polygon class="st6" points="95.87,59.22 95.56,59.05 95.62,59.01 95.93,59.19 "/>
<polygon class="st6" points="95.55,59.41 95.24,59.23 95.3,59.2 95.61,59.37 "/>
<polygon class="st6" points="95.23,59.59 94.93,59.41 94.98,59.38 95.29,59.56 "/>
<polygon class="st6" points="94.87,59.8 94.19,59.41 94.25,59.37 94.93,59.77 "/>
<polygon class="st6" points="94.87,59.8 94.57,59.62 94.63,59.59 94.93,59.77 "/>
<polygon class="st6" points="94.55,59.98 94.25,59.81 94.31,59.77 94.61,59.95 "/>
<polygon class="st6" points="94.24,60.17 93.93,59.99 93.99,59.95 94.3,60.13 "/>
<polygon class="st6" points="93.92,60.35 93.61,60.17 93.67,60.14 93.98,60.31 "/>
<polygon class="st6" points="93.6,60.53 93.3,60.36 93.35,60.32 93.66,60.5 "/>
<polygon class="st6" points="93.24,60.74 92.56,60.35 92.62,60.31 93.3,60.71 "/>
<polygon class="st6" points="93.24,60.74 92.94,60.56 92.99,60.53 93.3,60.71 "/>
<polygon class="st6" points="92.92,60.92 92.62,60.75 92.68,60.71 92.98,60.89 "/>
<polygon class="st6" points="92.61,61.11 92.3,60.93 92.36,60.9 92.67,61.07 "/>
<polygon class="st6" points="92.29,61.29 91.98,61.11 92.04,61.08 92.35,61.26 "/>
<polygon class="st6" points="91.97,61.47 91.67,61.3 91.72,61.26 92.03,61.44 "/>
<polygon class="st6" points="91.61,61.68 90.93,61.29 90.99,61.26 91.67,61.65 "/>
<polygon class="st6" points="91.61,61.68 91.31,61.51 91.36,61.47 91.67,61.65 "/>
<polygon class="st6" points="91.29,61.87 90.99,61.69 91.05,61.66 91.35,61.83 "/>
<polygon class="st6" points="90.97,62.05 90.67,61.87 90.73,61.84 91.03,62.02 "/>
<polygon class="st6" points="90.66,62.23 90.35,62.05 90.41,62.02 90.72,62.2 "/>
<polygon class="st6" points="90.34,62.42 90.03,62.24 90.09,62.2 90.4,62.38 "/>
<polygon class="st6" points="89.98,62.62 89.3,62.23 89.36,62.2 90.04,62.59 "/>
<polygon class="st6" points="89.98,62.62 89.67,62.45 89.73,62.41 90.04,62.59 "/>
<polygon class="st6" points="89.66,62.81 89.36,62.63 89.42,62.6 89.72,62.77 "/>
<polygon class="st6" points="89.34,62.99 89.04,62.81 89.1,62.78 89.4,62.96 "/>
<polygon class="st6" points="89.03,63.17 88.72,63 88.78,62.96 89.09,63.14 "/>
<polygon class="st6" points="88.71,63.36 88.4,63.18 88.46,63.15 88.77,63.32 "/>
<polygon class="st6" points="88.35,63.56 87.67,63.17 87.73,63.14 88.41,63.53 "/>
<polygon class="st6" points="88.35,63.56 88.04,63.39 88.1,63.35 88.41,63.53 "/>
<polygon class="st6" points="88.03,63.75 87.73,63.57 87.78,63.54 88.09,63.72 "/>
<polygon class="st6" points="87.71,63.93 87.41,63.76 87.47,63.72 87.77,63.9 "/>
<polygon class="st6" points="87.4,64.11 87.09,63.94 87.15,63.91 87.45,64.08 "/>
<polygon class="st6" points="87.08,64.3 86.77,64.12 86.83,64.09 87.14,64.27 "/>
<polygon class="st6" points="86.72,64.51 86.04,64.11 86.09,64.08 86.78,64.47 "/>
<polygon class="st6" points="86.72,64.51 86.41,64.33 86.47,64.3 86.78,64.47 "/>
<polygon class="st6" points="86.4,64.69 86.09,64.51 86.15,64.48 86.46,64.66 "/>
<polygon class="st6" points="86.08,64.87 85.78,64.7 85.84,64.66 86.14,64.84 "/>
<polygon class="st6" points="85.77,65.06 85.46,64.88 85.52,64.85 85.82,65.02 "/>
<polygon class="st6" points="85.45,65.24 85.14,65.06 85.2,65.03 85.51,65.21 "/>
<polygon class="st6" points="85.09,65.45 84.41,65.05 84.47,65.02 85.15,65.41 "/>
<polygon class="st6" points="85.09,65.45 84.78,65.27 84.84,65.24 85.15,65.41 "/>
<polygon class="st6" points="84.77,65.63 84.47,65.45 84.52,65.42 84.83,65.6 "/>
<polygon class="st6" points="84.45,65.81 84.15,65.64 84.2,65.6 84.51,65.78 "/>
<polygon class="st6" points="84.14,66 83.83,65.82 83.89,65.79 84.19,65.97 "/>
<polygon class="st6" points="83.82,66.18 83.51,66 83.57,65.97 83.88,66.15 "/>
<polygon class="st6" points="83.46,66.39 82.78,66 82.83,65.96 83.52,66.36 "/>
<polygon class="st6" points="83.46,66.39 83.15,66.21 83.21,66.18 83.52,66.36 "/>
<polygon class="st6" points="83.14,66.57 82.83,66.4 82.89,66.36 83.2,66.54 "/>
<polygon class="st6" points="82.82,66.76 82.52,66.58 82.57,66.55 82.88,66.72 "/>
<polygon class="st6" points="82.5,66.94 82.2,66.76 82.26,66.73 82.56,66.91 "/>
<polygon class="st6" points="82.19,67.12 81.88,66.95 81.94,66.91 82.25,67.09 "/>
<polygon class="st6" points="81.83,67.33 81.14,66.94 81.2,66.9 81.89,67.3 "/>
<polygon class="st6" points="81.83,67.33 81.52,67.15 81.58,67.12 81.89,67.3 "/>
<polygon class="st6" points="81.51,67.51 81.2,67.34 81.26,67.3 81.57,67.48 "/>
<polygon class="st6" points="81.19,67.7 80.89,67.52 80.94,67.49 81.25,67.66 "/>
<polygon class="st6" points="80.87,67.88 80.57,67.7 80.63,67.67 80.93,67.85 "/>
<polygon class="st6" points="80.56,68.06 80.25,67.89 80.31,67.85 80.61,68.03 "/>
<polygon class="st6" points="80.19,68.27 79.51,67.88 79.57,67.84 80.25,68.24 "/>
<polygon class="st6" points="80.19,68.27 79.89,68.1 79.95,68.06 80.25,68.24 "/>
<polygon class="st6" points="79.88,68.46 79.57,68.28 79.63,68.25 79.94,68.42 "/>
<polygon class="st6" points="79.56,68.64 79.25,68.46 79.31,68.43 79.62,68.61 "/>
<polygon class="st6" points="79.24,68.82 78.94,68.65 79,68.61 79.3,68.79 "/>
<polygon class="st6" points="78.92,69.01 78.62,68.83 78.68,68.8 78.98,68.97 "/>
<polygon class="st6" points="78.32,68.66 79,68.26 79.06,68.3 78.38,68.69 "/>
<polygon class="st6" points="78.32,68.66 78.63,68.48 78.68,68.51 78.38,68.69 "/>
<polygon class="st6" points="78,68.47 78.31,68.3 78.37,68.33 78.06,68.51 "/>
<polygon class="st6" points="77.69,68.29 77.99,68.11 78.05,68.15 77.74,68.32 "/>
<polygon class="st6" points="77.37,68.11 77.67,67.93 77.73,67.96 77.42,68.14 "/>
<polygon class="st6" points="77.05,67.92 77.36,67.75 77.41,67.78 77.11,67.96 "/>
<polygon class="st6" points="76.69,67.72 77.37,67.32 77.43,67.36 76.75,67.75 "/>
<polygon class="st6" points="76.69,67.72 77,67.54 77.05,67.57 76.75,67.75 "/>
<polygon class="st6" points="76.37,67.53 76.68,67.36 76.74,67.39 76.43,67.56 "/>
<polygon class="st6" points="76.05,67.35 76.36,67.17 76.42,67.21 76.11,67.38 "/>
<polygon class="st6" points="75.74,67.17 76.04,66.99 76.1,67.02 75.8,67.2 "/>
<polygon class="st6" points="75.42,66.98 75.72,66.81 75.78,66.84 75.48,67.02 "/>
<polygon class="st6" points="75.06,66.77 75.74,66.38 75.8,66.41 75.12,66.81 "/>
<polygon class="st6" points="75.06,66.77 75.36,66.6 75.42,66.63 75.12,66.81 "/>
<polygon class="st6" points="74.74,66.59 75.05,66.41 75.11,66.45 74.8,66.62 "/>
<polygon class="st6" points="74.42,66.41 74.73,66.23 74.79,66.26 74.48,66.44 "/>
<polygon class="st6" points="74.11,66.22 74.41,66.05 74.47,66.08 74.16,66.26 "/>
<polygon class="st6" points="73.79,66.04 74.09,65.86 74.15,65.9 73.85,66.07 "/>
<polygon class="st6" points="73.43,65.83 74.11,65.44 74.17,65.47 73.49,65.87 "/>
<polygon class="st6" points="73.43,65.83 73.73,65.66 73.79,65.69 73.49,65.87 "/>
<polygon class="st6" points="73.11,65.65 73.42,65.47 73.47,65.51 73.17,65.68 "/>
<polygon class="st6" points="72.79,65.47 73.1,65.29 73.16,65.32 72.85,65.5 "/>
<polygon class="st6" points="72.47,65.28 72.78,65.11 72.84,65.14 72.53,65.32 "/>
<polygon class="st6" points="72.16,65.1 72.46,64.92 72.52,64.96 72.22,65.13 "/>
<polygon class="st6" points="71.8,64.89 72.48,64.5 72.54,64.53 71.86,64.92 "/>
<polygon class="st6" points="71.8,64.89 72.1,64.71 72.16,64.75 71.86,64.92 "/>
<polygon class="st6" points="71.48,64.71 71.78,64.53 71.84,64.56 71.54,64.74 "/>
<polygon class="st6" points="71.16,64.52 71.47,64.35 71.53,64.38 71.22,64.56 "/>
<polygon class="st6" points="70.84,64.34 71.15,64.16 71.21,64.2 70.9,64.37 "/>
<polygon class="st6" points="70.53,64.16 70.83,63.98 70.89,64.01 70.58,64.19 "/>
<polygon class="st6" points="70.17,63.95 70.85,63.56 70.91,63.59 70.22,63.98 "/>
<polygon class="st6" points="70.17,63.95 70.47,63.77 70.53,63.81 70.22,63.98 "/>
<polygon class="st6" points="69.85,63.77 70.15,63.59 70.21,63.62 69.91,63.8 "/>
<polygon class="st6" points="69.53,63.58 69.84,63.41 69.89,63.44 69.59,63.62 "/>
<polygon class="st6" points="69.21,63.4 69.52,63.22 69.58,63.26 69.27,63.43 "/>
<polygon class="st6" points="68.9,63.22 69.2,63.04 69.26,63.07 68.95,63.25 "/>
<polygon class="st6" points="68.54,63.01 69.22,62.61 69.28,62.65 68.59,63.04 "/>
<polygon class="st6" points="68.54,63.01 68.84,62.83 68.9,62.87 68.59,63.04 "/>
<polygon class="st6" points="68.22,62.82 68.52,62.65 68.58,62.68 68.28,62.86 "/>
<polygon class="st6" points="67.9,62.64 68.21,62.46 68.26,62.5 67.96,62.67 "/>
<polygon class="st6" points="67.58,62.46 67.89,62.28 67.95,62.31 67.64,62.49 "/>
<polygon class="st6" points="67.27,62.27 67.57,62.1 67.63,62.13 67.32,62.31 "/>
<polygon class="st6" points="66.91,62.07 67.59,61.67 67.64,61.71 66.96,62.1 "/>
<polygon class="st6" points="66.91,62.07 67.21,61.89 67.27,61.92 66.96,62.1 "/>
<polygon class="st6" points="66.59,61.88 66.89,61.71 66.95,61.74 66.64,61.92 "/>
<polygon class="st6" points="66.27,61.7 66.58,61.52 66.63,61.56 66.33,61.73 "/>
<polygon class="st6" points="65.95,61.52 66.26,61.34 66.32,61.37 66.01,61.55 "/>
<polygon class="st6" points="65.63,61.33 65.94,61.16 66,61.19 65.69,61.37 "/>
<polygon class="st6" points="65.27,61.13 65.95,60.73 66.01,60.77 65.33,61.16 "/>
<polygon class="st6" points="65.27,61.13 65.58,60.95 65.64,60.98 65.33,61.16 "/>
<polygon class="st6" points="64.96,60.94 65.26,60.77 65.32,60.8 65.02,60.98 "/>
<polygon class="st6" points="64.64,60.76 64.94,60.58 65,60.62 64.7,60.79 "/>
<polygon class="st6" points="64.32,60.57 64.63,60.4 64.69,60.43 64.38,60.61 "/>
<polygon class="st6" points="64,60.39 64.31,60.21 64.37,60.25 64.06,60.42 "/>
<polygon class="st6" points="63.64,60.18 64.33,59.79 64.38,59.82 63.7,60.22 "/>
<polygon class="st6" points="63.64,60.18 63.95,60.01 64.01,60.04 63.7,60.22 "/>
<polygon class="st6" points="63.33,60 63.63,59.82 63.69,59.86 63.38,60.03 "/>
<polygon class="st6" points="63.01,59.82 63.31,59.64 63.37,59.67 63.07,59.85 "/>
<polygon class="st6" points="62.69,59.63 63,59.46 63.05,59.49 62.75,59.67 "/>
<polygon class="st6" points="62.37,59.45 62.68,59.27 62.74,59.31 62.43,59.48 "/>
<polygon class="st7" points="91.77,38.99 77.47,30.73 77.47,7.82 91.77,16.08 "/>
<polygon class="st8" points="74.19,9.78 77.47,7.82 77.47,15.03 "/>
<polygon class="st9" points="90.87,38.47 90.87,16.43 77.47,8.69 74.19,10.65 77.47,15.89 88.16,39.96 "/>
<polygon class="st10" points="90.87,16.43 77.47,8.69 74.19,10.65 77.47,15.89 80.67,23.09 90.87,16.46 "/>
<polygon class="st11" points="88.49,40.94 74.19,32.69 74.19,9.78 88.49,18.03 "/>
<polygon class="st12" points="86.8,42.02 72.68,33.87 72.68,11.24 86.8,19.39 "/>
<polygon class="st13" points="69.44,13.17 72.68,11.24 72.68,18.35 "/>
<polygon class="st9" points="85.92,41.51 85.92,19.74 72.68,12.09 69.44,14.03 72.68,19.21 83.23,42.99 "/>
<polygon class="st10" points="85.92,19.74 72.68,12.09 69.44,14.03 72.68,19.21 75.83,26.31 85.92,19.77 "/>
<polygon class="st14" points="83.56,43.96 69.44,35.8 69.44,13.17 83.56,21.32 "/>
<path class="st10" d="M59.72,7.28L60.48,7L59.9,6.66l0,0c-0.18-0.11-0.41-0.11-0.59,0L24.72,26.3c-0.41,0.25-0.68,0.69-0.72,1.17
	l6.74,25.14c-0.01,0.16,0.07,0.31,0.2,0.39l0,0l1.15,0.71l-0.12-1.06l34.82-20.1c0.42-0.25,0.7-0.68,0.75-1.17L59.72,7.28z"/>
<path class="st15" d="M68.64,32.08c-0.05,0.49-0.33,0.92-0.75,1.17L32.6,53.63c-0.41,0.24-0.75,0.1-0.75-0.31l-7.08-25.41
	c0.05-0.49,0.32-0.92,0.74-1.17L59.89,7c0.41-0.24,0.64-0.12,0.79,0.31L68.64,32.08z"/>
<polygon class="st16" points="67.4,30.97 32.25,51.27 26.01,29.02 60.32,9.21 "/>
<polygon class="st17" points="62.35,22.64 53.09,27.7 50.23,17.49 59.1,12.65 "/>
<polygon class="st17" points="46.19,40.29 33.63,47.54 30.77,37.34 42.94,30.31 "/>
<polygon class="st18" points="60.32,9.21 59.86,9.48 66.8,30.8 32.12,50.82 32.25,51.27 67.4,30.97 "/>
<line class="st0" x1="60.32" y1="9.22" x2="67.4" y2="30.97"/>
<polygon class="st19" points="87.7,44.91 88.78,45.55 88.78,44.28 "/>
<polygon class="st20" points="32.57,55.15 32.57,53.9 34.27,53.94 "/>
<path class="st21" d="M51.76,66.44c0.44,0.22,0.95,0.22,1.39,0L88.44,46c0.41-0.24,0.46-0.6,0.1-0.8l-19-10.94
	c-0.43-0.22-0.95-0.22-1.38,0L32.91,54.7c-0.41,0.24-0.46,0.6-0.1,0.8L51.76,66.44z"/>
<path class="st19" d="M88.54,45.21l-19-10.94c-0.43-0.22-0.95-0.22-1.38,0l-15.78,9.19v23.12c0.27,0,0.53-0.07,0.77-0.19L88.44,46
	C88.85,45.77,88.9,45.41,88.54,45.21z"/>
<path class="st21" d="M32.91,54.7c-0.41,0.24-0.46,0.6-0.1,0.8l18.95,10.94c0.19,0.1,0.4,0.15,0.62,0.14V43.46L32.91,54.7z"/>
<path class="st10" d="M51.76,65.17c0.44,0.22,0.95,0.22,1.39,0l35.29-20.43c0.41-0.24,0.46-0.6,0.1-0.8L69.59,33
	c-0.43-0.22-0.95-0.22-1.38,0l-35.3,20.43c-0.41,0.24-0.46,0.6-0.1,0.8L51.76,65.17z"/>
<path class="st22" d="M74,50.5l0.74,0.43c0.22,0.12,0.19,0.34-0.06,0.49l-10,5.75c-0.27,0.13-0.58,0.13-0.85,0l-0.74-0.42L74,50.5z"
	/>
<path class="st22" d="M62.81,56.6l-3.89-2.25c-0.22-0.13-0.2-0.35,0.06-0.49l10-5.76c0.27-0.13,0.58-0.13,0.85,0l3.9,2.25
	L62.81,56.6z"/>
<polygon class="st22" points="68.69,38.34 71.53,36.7 69.5,35.53 66.66,37.17 "/>
<polygon class="st22" points="69.44,40.98 74.19,38.24 72.16,37.07 67.41,39.81 "/>
<polygon class="st22" points="65.75,43.11 68.74,41.39 66.71,40.21 63.72,41.94 "/>
<polygon class="st22" points="62.04,45.25 65.02,43.53 62.99,42.36 60.01,44.08 "/>
<polygon class="st22" points="58.32,47.4 61.3,45.68 59.28,44.51 56.29,46.23 "/>
<polygon class="st22" points="54.6,49.55 57.59,47.82 55.56,46.65 52.58,48.37 "/>
<polygon class="st22" points="50.89,51.69 53.87,49.97 51.84,48.8 48.86,50.52 "/>
<polygon class="st22" points="47.17,53.84 50.16,52.11 48.13,50.94 45.14,52.66 "/>
<polygon class="st22" points="41.89,56.88 46.44,54.26 44.41,53.09 39.86,55.71 "/>
<polygon class="st22" points="70.16,43.61 76.82,39.76 74.8,38.59 68.14,42.44 "/>
<polygon class="st22" points="66.47,45.74 69.46,44.01 67.43,42.84 64.45,44.56 "/>
<polygon class="st22" points="62.76,47.88 65.74,46.16 63.72,44.99 60.73,46.71 "/>
<polygon class="st22" points="59.04,50.03 62.03,48.3 60,47.13 57.02,48.86 "/>
<polygon class="st22" points="55.33,52.17 58.31,50.45 56.28,49.28 53.3,51 "/>
<polygon class="st22" points="51.61,54.32 54.59,52.59 52.57,51.42 49.58,53.15 "/>
<polygon class="st22" points="44.53,58.41 50.87,54.74 48.84,53.57 42.5,57.24 "/>
<polygon class="st22" points="57.98,53.7 72.11,45.55 70.08,44.37 55.95,52.53 "/>
<polygon class="st22" points="65,40.47 67.84,38.83 65.81,37.66 62.98,39.3 "/>
<polygon class="st22" points="76.64,42.93 79.48,41.29 77.45,40.12 74.61,41.76 "/>
<polygon class="st22" points="72.96,45.06 75.79,43.42 73.77,42.25 70.93,43.89 "/>
<polygon class="st22" points="61.32,42.59 64.16,40.95 62.13,39.78 59.29,41.42 "/>
<polygon class="st22" points="57.64,44.72 60.48,43.08 58.45,41.91 55.61,43.55 "/>
<polygon class="st22" points="53.96,46.84 56.8,45.2 54.77,44.03 51.93,45.67 "/>
<polygon class="st22" points="50.28,48.97 53.11,47.33 51.09,46.16 48.25,47.8 "/>
<polygon class="st22" points="46.59,51.1 49.43,49.46 47.4,48.29 44.56,49.92 "/>
<polygon class="st22" points="42.91,53.22 45.75,51.58 43.72,50.41 40.88,52.05 "/>
<polygon class="st22" points="39.23,55.35 42.07,53.71 40.04,52.54 37.2,54.18 "/>
<polygon class="st22" points="54.26,55.85 57.25,54.13 55.22,52.95 52.23,54.68 "/>
<polygon class="st22" points="50.73,57.89 53.56,56.25 51.54,55.08 48.7,56.72 "/>
<polygon class="st22" points="47.18,59.94 50.02,58.3 47.99,57.13 45.15,58.77 "/>
<polygon class="st23" points="48.78,63.77 50.9,64.99 50.9,65.7 48.78,64.47 "/>
<polygon class="st24" points="49.37,64.11 50.9,64.99 50.9,65.7 48.78,64.47 "/>
<polygon class="st23" points="33.42,54.89 35.54,56.11 35.54,56.81 33.42,55.58 "/>
<polygon class="st24" points="34.01,55.22 35.54,56.11 35.54,56.81 33.42,55.58 "/>
<polygon class="st23" points="35.89,56.31 38.01,57.53 38.01,58.24 35.89,57.01 "/>
<polygon class="st24" points="36.48,56.65 38.01,57.53 38.01,58.24 35.89,57.01 "/>
<path class="st25" d="M66.18,31.75l17.29,10c0,0-12.42,6.82-12.42,7.15l-17.29-10C53.76,38.9,58.92,33.08,66.18,31.75z"/>
<path class="st25" d="M41.34,46.09l17.29,10l12.42-7.19l-17.29-10C53.76,38.9,43.64,41.9,41.34,46.09z"/>
<path class="st26" d="M66.18,30.88c-7.26,1.32-12.42,7.17-12.42,7.17s-9.41,0.81-12.42,4.59v2.58l17.29,10
	c0,0,12.06-7.08,12.42-7.22l0,0l0,0l12.38-7.13v-2.58L66.18,30.88z"/>
<path class="st21" d="M66.18,30.88c-7.26,1.32-12.42,7.17-12.42,7.17s-9.41,0.81-12.42,4.59v2.58l17.29,10c0,0,2.77-4.22,12.42-7.22
	l0,0l0,0c3.39-3.48,7.67-5.94,12.38-7.13v-2.58L66.18,30.88z"/>
<path class="st20" d="M66.18,28.31l17.29,10c-4.73,1.19-9.03,3.67-12.42,7.17l-17.29-10C53.76,35.48,58.92,29.63,66.18,28.31z"/>
<path class="st20" d="M41.34,42.64l17.29,10c0,0,2.77-4.25,12.42-7.17l-17.29-10C53.76,35.47,43.64,38.45,41.34,42.64z"/>
<path class="st9" d="M65.88,27.43c-7.26,1.33-12.12,8-12.12,8s-10.12,1.88-12.42,6.07l17.29,10c0,0,2.77-3.13,12.42-6.06
	c3.39-3.54,7.53-6.27,12.12-8L65.88,27.43z"/>
<path class="st10" d="M65,25.89c-7.26,1.32-11.21,9.55-11.21,9.55S43,35.72,40.7,39.92L58,49.9c0,0,3-3.09,13.06-4.48
	c2.81-4.14,6.68-7.43,11.21-9.55L65,25.89z"/>
<linearGradient id="SVGID_1_" gradientUnits="userSpaceOnUse" x1="62.0598" y1="107.8603" x2="50.7198" y2="100.0803" gradientTransform="matrix(1 0 0 -1 0 146)">
	<stop  offset="0" style="stop-color:#EDEDED"/>
	<stop  offset="0.03" style="stop-color:#EEEEEE"/>
	<stop  offset="0.53" style="stop-color:#FBFBFB"/>
	<stop  offset="1" style="stop-color:#FFFFFF"/>
</linearGradient>
<path class="st27" d="M53.76,35.44c0,0-10.76,0.28-13.06,4.48L58,49.9c0,0,3-3.09,13.06-4.48L53.76,35.44z"/>
<path class="st28" d="M53.76,35.44c0,0,16.11,9.35,17.29,10c0.83,0.56,1.47,1.35,1.86,2.27l0.45-1.53l1.25,0.27
	c-0.68-1-1.53-1.89-2.5-2.62c-1.2-0.73-18.06-8.92-18.06-8.92L53.76,35.44z"/>
<path class="st29" d="M54,55.54L54,55.54c-0.03-0.66-0.41-1.25-1-1.54l-10.24-5.92l-1.06,0.61l-3-1.73l-3.22,1.86l-1.64,1L37.36,52
	l-1.2,0.77l11.4,6.61c1.65,0.84,3.61,0.84,5.26,0l0.13-0.07c0.61-0.28,1.01-0.87,1.05-1.54l0,0V55.54z"/>
<polygon class="st30" points="40.37,52.31 35.41,49.45 35.41,48.12 44.29,50.05 "/>
<polygon class="st19" points="40.37,50.98 35.41,48.12 39.33,45.86 44.29,48.72 "/>
<polygon class="st31" points="37.18,48.6 36.43,48.17 37.53,47.53 38.28,47.97 "/>
<polygon class="st32" points="37.53,47.65 38.18,48.02 38.28,47.97 37.53,47.53 36.43,48.17 36.53,48.22 "/>
<polygon class="st31" points="39.09,47.5 38.33,47.07 39.43,46.44 40.18,46.87 "/>
<polygon class="st32" points="39.43,46.55 40.08,46.93 40.18,46.87 39.43,46.44 38.33,47.07 38.43,47.13 "/>
<path class="st7" d="M54.66,54.44l-0.93,0.86l-0.16-0.1L38,50.08v2.35l10.19,5.89c1.66,0.84,3.61,0.84,5.27,0l0.13-0.08
	c0.63-0.28,1.05-0.88,1.09-1.57l0,0L54.66,54.44z"/>
<path class="st11" d="M53.57,52.85L43.38,47L38,50.08L48.17,56c1.66,0.84,3.61,0.84,5.27,0l0.13-0.08C55,55.05,55,53.69,53.57,52.85
	z"/>
<path class="st7" d="M52.61,55.22c-1.01,0.51-2.21,0.51-3.22,0c-0.51-0.2-0.77-0.78-0.56-1.3c0.1-0.26,0.31-0.46,0.56-0.56
	c1.01-0.52,2.21-0.52,3.22,0c0.51,0.2,0.77,0.78,0.56,1.3C53.07,54.91,52.87,55.12,52.61,55.22z"/>
<polygon class="st5" points="86.78,60.77 77.32,55.31 90.41,47.29 99.99,52.96 "/>
<polygon class="st33" points="87.17,60.09 77.7,54.62 77.7,52.5 90.4,47.29 99.87,52.75 "/>
<polygon class="st34" points="90.4,46.61 78.17,52.28 78.17,54.21 87.17,59.41 99.87,52.07 "/>
<polygon class="st22" points="90.4,46.11 88.37,47.05 88.37,53.13 78.17,53.13 78.17,53.72 87.17,58.91 99.87,51.58 "/>
<polygon class="st10" points="90.4,45.66 88.37,46.6 88.37,53.13 78.17,53.13 78.17,53.27 87.17,58.46 99.87,51.13 "/>
<polygon class="st35" points="87.17,57.97 77.7,52.5 90.4,45.17 99.87,50.63 "/>
<polygon class="st36" points="86.08,56.43 76.62,50.96 76.62,48.84 89.32,43.63 98.79,49.1 "/>
<polygon class="st34" points="89.32,42.95 77.09,48.62 77.09,50.55 86.08,55.75 98.79,48.41 "/>
<polygon class="st22" points="89.32,42.46 87.29,43.4 87.29,49.47 77.09,49.47 77.09,50.06 86.08,55.26 98.79,47.92 "/>
<polygon class="st10" points="89.32,42 87.29,42.95 87.29,49.47 77.09,49.47 77.09,49.61 86.08,54.8 98.79,47.47 "/>
<polygon class="st37" points="86.08,54.31 76.62,48.84 89.32,41.51 98.79,46.98 "/>
<path class="st5" d="M44.88,70.45c-0.75,0.66-1.8,0.85-2.74,0.51L20.26,58.33c-0.68-0.39-0.55-1.25,0.29-1.93l0,0
	c0.75-0.66,1.8-0.85,2.74-0.51l21.89,12.64C45.85,68.92,45.72,69.78,44.88,70.45z"/>
<path class="st22" d="M43.7,69.88l2.83-5.17L25.35,52.28c-0.48-0.28-1.09-0.25-1.54,0.08c-1.25,0.78-2.06,2.11-2.17,3.58
	c-0.06,0.52,0.16,1.04,0.58,1.36l0,0L43.7,69.88z"/>
<path class="st38" d="M47.32,66.17c-0.11,1.47-0.92,2.8-2.17,3.58c-1.16,0.64-2.09,0.08-2.06-1.25c0.1-1.47,0.91-2.8,2.16-3.58
	C46.42,64.28,47.35,64.83,47.32,66.17z"/>
<path class="st39" d="M46.7,66.08c0-0.85-0.41-1.35-1-1.34c-0.15,0.04-0.29,0.1-0.42,0.18c-1.25,0.78-2.06,2.11-2.16,3.58l0,0
	l1.61,0.75c0.03-0.01,0.05-0.01,0.08,0C45.9,68.55,46.6,67.37,46.7,66.08z"/>
<path class="st40" d="M37.76,59.49"/>
<path class="st41" d="M34.7,57.77c-0.4-0.05-0.8,0.03-1.14,0.25c-1.27,0.79-2.08,2.14-2.19,3.63c-0.05,0.46,0.11,0.93,0.44,1.26
	l2.63,1.54c-0.31-0.33-0.47-0.78-0.44-1.23c0.11-1.49,0.92-2.84,2.19-3.63c0.35-0.21,0.76-0.3,1.16-0.25L34.7,57.77z"/>
<path class="st2" d="M44.2,67.88c0.16-0.59,0.48-1.12,0.93-1.53L44,66c-0.56,0.71-0.89,1.58-0.95,2.49c-0.01,0.08-0.01,0.17,0,0.25
	c0.38,0.24,1.27,0.85,1.73,0.47C44.47,69.4,43.94,68.69,44.2,67.88z"/>
<path class="st4" d="M31.14,31.61l0.09,0.33l-1.3,0.76l0.21,0.89l1.12-0.65l0.08,0.34l-1.11,0.65l0.23,1l1.3-0.77l0.08,0.34l-1.69,1
	l-0.7-2.84L31.14,31.61z"/>
<path class="st4" d="M33.07,33.73l-0.83,0.48l-0.69-2.84l0.82-0.48c0.77-0.45,1.26-0.32,1.5,0.66v0.15
	C34.17,32.48,33.82,33.36,33.07,33.73z M33,33.41c0.54-0.28,0.77-0.92,0.54-1.48v-0.14c-0.18-0.72-0.5-0.87-1-0.55l-0.41,0.24
	l0.53,2.17L33,33.41z"/>
<path class="st4" d="M34.44,31.91L34,30l0.39-0.23l0.47,1.94c0.11,0.45,0.33,0.5,0.75,0.26C35.98,31.8,36.15,31.38,36,31l-0.47-2
	l0.39-0.23l0.48,2c0.18,0.62-0.15,1.28-0.75,1.51C35,32.67,34.6,32.57,34.44,31.91z"/>
<path class="st4" d="M38,30.5L38,30.5c0.37-0.18,0.54-0.62,0.39-1l0.39-0.24l0,0c0.17,0.62-0.15,1.27-0.74,1.52
	c-0.7,0.41-1.13,0.2-1.37-0.79v-0.14c-0.32-0.75-0.02-1.62,0.7-2c0.65-0.38,1-0.26,1.21,0.42v0.11l-0.39,0.23
	c-0.13-0.52-0.34-0.67-0.74-0.44l0,0c-0.46,0.27-0.55,0.71-0.37,1.43v0.15C37.29,30.54,37.54,30.77,38,30.5z"/>
<path class="st4" d="M39.91,26.44l1.51,2.39L41,29.08l-0.35-0.58l-0.95,0.56v0.79l-0.43,0.25l0.11-3.34L39.91,26.44z M39.71,28.67
	l0.77-0.45L39.74,27L39.71,28.67z"/>
<path class="st4" d="M42.5,28.2l-0.39,0.23l-0.61-2.51l-0.72,0.42L40.69,26l1.84-1.08l0.08,0.34l-0.72,0.42L42.5,28.2z"/>
<path class="st4" d="M44,27.34l-0.39,0.23l-0.69-2.84l0.39-0.23L44,27.34z"/>
<path class="st4" d="M44.09,25.73v-0.15c-0.31-0.75-0.01-1.61,0.7-2c0.71-0.41,1.15-0.2,1.39,0.78v0.15c0.31,0.75,0.01,1.61-0.7,2
	C44.78,26.92,44.33,26.71,44.09,25.73z M45.41,26.16c0.45-0.26,0.55-0.7,0.37-1.42v-0.15c-0.18-0.72-0.44-0.95-0.89-0.69l0,0
	c-0.45,0.26-0.55,0.7-0.37,1.42v0.15C44.7,26.19,44.96,26.47,45.41,26.16z"/>
<path class="st4" d="M49,24.42l-0.42,0.24l-1.76-1.45l0.17,0.62l0.38,1.54l-0.38,0.22l-0.69-2.84l0.41-0.25l1.73,1.5l-0.17-0.63
	l-0.38-1.54l0.37-0.22L49,24.42z"/>
<polygon class="st29" points="60.73,46.96 47.32,39.21 60.73,31.47 74.14,39.21 "/>
<linearGradient id="SVGID_00000003825630128811952360000007073303650432179381_" gradientUnits="userSpaceOnUse" x1="55.34" y1="108.4048" x2="70.9801" y2="108.4048" gradientTransform="matrix(1 0 0 -1 0 146)">
	<stop  offset="0" style="stop-color:#242424"/>
	<stop  offset="0.68" style="stop-color:#696969"/>
	<stop  offset="1" style="stop-color:#3D3D3D"/>
</linearGradient>
<path style="fill:url(#SVGID_00000003825630128811952360000007073303650432179381_);" d="M55.34,32.53v5.62
	c0.13,1.4,1.01,2.62,2.29,3.19c3.48,1.76,7.58,1.76,11.06,0c1.53-0.88,2.3-2,2.29-3.19v-5.62H55.34z"/>
<polygon class="st43" points="62.86,39.85 49.45,32.11 49.45,31.74 76.27,31.74 76.27,32.11 "/>
<polygon class="st44" points="62.86,39.48 49.45,31.74 62.86,23.99 76.27,31.74 "/>
<polygon class="st45" points="70.27,40.24 69.81,40.24 69.81,35.48 62.76,31.94 62.96,31.53 70.27,35.19 "/>
<path class="st45" d="M63.82,31.82c0,0.26-0.35,0.46-0.77,0.46s-0.76-0.2-0.76-0.46s0.34-0.46,0.76-0.46S63.82,31.56,63.82,31.82z"
	/>
<path class="st46" d="M70.59,42.38V40c0-0.3-0.24-0.54-0.54-0.54S69.51,39.7,69.51,40v2.36L70.59,42.38z"/>
<g>
	<path d="M21.91,94.7h-1.15V86.2h1.15V94.7z"/>
	<path d="M24.89,89.01v0.88h0.02c0.3-0.63,1.04-1.02,1.87-1.02c1.27,0,2.06,0.84,2.06,2.12v3.71h-1.08V91.3
		c0-0.88-0.48-1.43-1.3-1.43c-1,0-1.58,0.71-1.58,1.85v2.97h-1.08v-5.69H24.89z"/>
	<path d="M30.21,91.85c0-1.76,1.21-2.99,2.89-2.99c0.78,0,1.57,0.35,1.98,0.96h0.02v-4.2h1.08v9.07H35.1v-0.82h-0.02
		c-0.42,0.61-1.19,0.96-1.98,0.96C31.42,94.84,30.21,93.62,30.21,91.85z M33.23,93.83c1.13,0,1.87-0.8,1.87-1.98
		c0-1.2-0.77-1.98-1.88-1.98c-1.1,0-1.86,0.79-1.86,1.98S32.12,93.83,33.23,93.83z"/>
	<path d="M38.9,89.01v3.41c0,0.89,0.49,1.42,1.3,1.42c1.01,0,1.58-0.72,1.58-1.85v-2.97h1.08v5.69h-1.08v-0.88h-0.02
		c-0.3,0.64-1.03,1.02-1.87,1.02c-1.26,0-2.06-0.84-2.06-2.12v-3.71H38.9z"/>
	<path d="M48.35,89.8l-0.84,0.64c-0.26-0.31-0.62-0.56-1.16-0.56c-0.54,0-0.95,0.26-0.95,0.64c0,0.47,0.46,0.68,1.12,0.81
		c1.36,0.26,1.99,0.7,1.99,1.73c0,1.25-1.13,1.79-2.31,1.79c-1.04,0-1.69-0.32-2.18-1.01l0.82-0.67c0.49,0.5,0.91,0.67,1.38,0.67
		c0.6,0,1.15-0.25,1.15-0.72c0-0.43-0.4-0.66-1.08-0.81c-1.33-0.28-2.03-0.65-2.03-1.68c0-1.18,1.08-1.75,2.16-1.75
		C47.27,88.87,47.99,89.2,48.35,89.8z"/>
	<path d="M48.99,89.95v-0.94h1.25v-1.6h1.08v1.6h1.55v0.94h-1.55v2.73c0,0.73,0.14,1.15,0.82,1.15c0.24,0,0.55-0.04,0.77-0.17v0.98
		c-0.2,0.12-0.67,0.19-0.98,0.19c-1.67,0-1.68-1.08-1.68-1.86v-3.04H48.99z"/>
	<path d="M54.26,89.01h1.08v0.88h0.02c0.29-0.61,1-1.02,1.7-1.02c0.18,0,0.36,0.03,0.48,0.07L57.5,90.1
		c-0.18-0.05-0.35-0.08-0.54-0.08c-1.07,0-1.62,0.62-1.62,1.78v2.9h-1.08V89.01z"/>
	<path d="M59.26,89.01l1.69,4.44h0.02l1.61-4.44h1.16l-2.69,6.88c-0.4,1.03-0.78,1.68-1.96,1.68c-0.34,0-0.66-0.04-0.96-0.15
		l0.13-0.97c0.22,0.07,0.43,0.12,0.65,0.12c0.67,0,0.89-0.35,1.12-0.95l0.34-0.89l-2.36-5.72H59.26z"/>
	<path d="M68.31,86.2h3c1.32,0,2.53,0.64,2.53,2.12c0,0.89-0.5,1.55-1.46,1.87v0.02h0.01c1.33,0.14,1.82,1.31,1.82,2.11
		c0,1.46-1.26,2.36-2.94,2.36h-2.96V86.2z M71.07,89.73c0.96,0,1.55-0.46,1.55-1.27c0-0.77-0.53-1.25-1.31-1.25h-1.85v2.52H71.07z
		 M71.2,93.69c0.98,0,1.79-0.46,1.79-1.44c0-0.96-0.67-1.51-1.81-1.51h-1.71v2.95H71.2z"/>
	<path d="M75.32,93.13c0-1.14,0.89-1.97,3.12-1.97h0.8v-0.2c0-0.77-0.56-1.23-1.37-1.23c-0.61,0-0.98,0.14-1.61,0.65l-0.65-0.67
		c0.6-0.55,1.44-0.84,2.25-0.84c1.71,0,2.37,0.97,2.37,1.86v3.05c0,0.17,0.01,0.62,0.05,0.92h-0.96c-0.02-0.29-0.04-0.53-0.04-0.86
		h-0.02c-0.49,0.73-1.13,1.01-1.99,1.01C76.14,94.84,75.32,94.19,75.32,93.13z M76.4,93.05c0,0.59,0.4,0.92,1.22,0.92
		c0.97,0,1.62-0.6,1.62-1.7v-0.31h-0.61C76.88,91.96,76.4,92.5,76.4,93.05z"/>
	<path d="M85.68,89.8l-0.84,0.64c-0.26-0.31-0.62-0.56-1.16-0.56c-0.54,0-0.95,0.26-0.95,0.64c0,0.47,0.46,0.68,1.12,0.81
		c1.36,0.26,1.99,0.7,1.99,1.73c0,1.25-1.13,1.79-2.31,1.79c-1.04,0-1.69-0.32-2.18-1.01l0.82-0.67c0.49,0.5,0.91,0.67,1.38,0.67
		c0.6,0,1.15-0.25,1.15-0.72c0-0.43-0.4-0.66-1.08-0.81c-1.33-0.28-2.03-0.65-2.03-1.68c0-1.18,1.08-1.75,2.16-1.75
		C84.6,88.87,85.32,89.2,85.68,89.8z"/>
	<path d="M92.52,91.95v0.3h-4.56c0,0.98,0.92,1.65,1.92,1.65c0.66,0,1.14-0.33,1.56-0.85l0.82,0.62c-0.61,0.78-1.43,1.16-2.52,1.16
		c-1.69,0-2.93-1.17-2.93-2.99c0-1.68,1.21-2.99,2.94-2.99C91.43,88.87,92.52,89.98,92.52,91.95z M89.73,89.73
		c-1.14,0-1.76,0.97-1.76,1.65h3.41C91.33,90.32,90.74,89.73,89.73,89.73z"/>
	<path d="M93.54,91.85c0-1.76,1.21-2.99,2.89-2.99c0.78,0,1.57,0.35,1.98,0.96h0.02v-4.2h1.08v9.07h-1.08v-0.82h-0.02
		c-0.42,0.61-1.19,0.96-1.98,0.96C94.76,94.84,93.54,93.62,93.54,91.85z M96.57,93.83c1.13,0,1.87-0.8,1.87-1.98
		c0-1.2-0.77-1.98-1.88-1.98c-1.1,0-1.86,0.79-1.86,1.98S95.45,93.83,96.57,93.83z"/>
	<path d="M17.4,101.71l-0.96,0.73c-0.5-0.64-1.26-0.97-2.05-0.97c-1.9,0-3.17,1.52-3.17,3.46c0,1.82,1.24,3.31,3.17,3.31
		c0.98,0,1.7-0.42,2.22-1.14l0.97,0.73c-0.66,0.89-1.85,1.49-3.21,1.49c-2.73,0-4.37-2.3-4.37-4.4c0-2.57,1.75-4.52,4.43-4.52
		C15.62,100.39,16.74,100.86,17.4,101.71z"/>
	<path d="M24.46,106.25c0,1.66-1.33,2.99-3.02,2.99c-1.64,0-3.02-1.29-3.02-2.99c0-1.65,1.33-2.99,3.02-2.99
		C23.05,103.27,24.46,104.51,24.46,106.25z M21.44,108.23c1.13,0,1.87-0.8,1.87-1.98c0-1.2-0.77-1.98-1.88-1.98
		c-1.1,0-1.86,0.82-1.86,1.98C19.57,107.44,20.33,108.23,21.44,108.23z"/>
	<path d="M26.9,103.41v3.41c0,0.89,0.49,1.42,1.3,1.42c1.01,0,1.58-0.72,1.58-1.85v-2.97h1.08v5.69h-1.08v-0.88h-0.02
		c-0.3,0.64-1.03,1.02-1.87,1.02c-1.26,0-2.06-0.84-2.06-2.12v-3.71H26.9z"/>
	<path d="M32.5,103.41h1.08v0.88h0.02c0.29-0.61,1-1.02,1.7-1.02c0.18,0,0.36,0.03,0.48,0.07l-0.05,1.16
		c-0.18-0.05-0.35-0.08-0.54-0.08c-1.07,0-1.62,0.62-1.62,1.78v2.9H32.5V103.41z"/>
	<path d="M40.8,104.2l-0.84,0.64c-0.26-0.31-0.62-0.56-1.16-0.56c-0.54,0-0.95,0.26-0.95,0.64c0,0.47,0.46,0.68,1.12,0.81
		c1.36,0.26,1.99,0.7,1.99,1.73c0,1.25-1.13,1.79-2.31,1.79c-1.04,0-1.69-0.32-2.18-1.01l0.82-0.67c0.49,0.5,0.91,0.67,1.38,0.67
		c0.6,0,1.15-0.25,1.15-0.72c0-0.43-0.4-0.66-1.08-0.81c-1.33-0.28-2.03-0.65-2.03-1.68c0-1.18,1.08-1.75,2.16-1.75
		C39.72,103.27,40.44,103.6,40.8,104.2z"/>
	<path d="M47.64,106.35v0.3h-4.56c0,0.98,0.92,1.65,1.92,1.65c0.66,0,1.14-0.33,1.56-0.85l0.82,0.62c-0.61,0.78-1.43,1.16-2.52,1.16
		c-1.69,0-2.93-1.17-2.93-2.99c0-1.68,1.21-2.99,2.94-2.99C46.55,103.27,47.64,104.38,47.64,106.35z M44.84,104.13
		c-1.14,0-1.76,0.97-1.76,1.65h3.41C46.45,104.72,45.85,104.13,44.84,104.13z"/>
	<path d="M59.42,101.71l-0.96,0.73c-0.5-0.64-1.26-0.97-2.05-0.97c-1.9,0-3.17,1.52-3.17,3.46c0,1.82,1.24,3.31,3.17,3.31
		c0.98,0,1.7-0.42,2.22-1.14l0.97,0.73c-0.66,0.89-1.85,1.49-3.21,1.49c-2.73,0-4.37-2.3-4.37-4.4c0-2.57,1.75-4.52,4.43-4.52
		C57.64,100.39,58.76,100.86,59.42,101.71z"/>
	<path d="M61.8,103.41v3.41c0,0.89,0.49,1.42,1.3,1.42c1.01,0,1.58-0.72,1.58-1.85v-2.97h1.08v5.69h-1.08v-0.88h-0.02
		c-0.3,0.64-1.03,1.02-1.87,1.02c-1.26,0-2.06-0.84-2.06-2.12v-3.71H61.8z"/>
	<path d="M67.39,103.41h1.08v0.88h0.02c0.29-0.61,1-1.02,1.7-1.02c0.18,0,0.36,0.03,0.48,0.07l-0.05,1.16
		c-0.18-0.05-0.35-0.08-0.54-0.08c-1.07,0-1.62,0.62-1.62,1.78v2.9h-1.08V103.41z"/>
	<path d="M71.83,103.41h1.08v0.88h0.02c0.29-0.61,1-1.02,1.7-1.02c0.18,0,0.36,0.03,0.48,0.07l-0.05,1.16
		c-0.18-0.05-0.35-0.08-0.54-0.08c-1.07,0-1.62,0.62-1.62,1.78v2.9h-1.08V103.41z"/>
	<path d="M77.69,101.37c0,0.44-0.37,0.79-0.79,0.79c-0.44,0-0.79-0.35-0.79-0.79s0.37-0.79,0.79-0.79
		C77.33,100.58,77.69,100.94,77.69,101.37z M77.43,109.1h-1.08v-5.69h1.08V109.1z"/>
	<path d="M84.03,104.18l-0.82,0.74c-0.4-0.42-0.82-0.64-1.42-0.64c-1.08,0-1.78,0.84-1.78,2.02c0,1.1,0.76,1.93,1.83,1.93
		c0.61,0,1.01-0.22,1.38-0.64l0.77,0.77c-0.56,0.64-1.33,0.88-2.16,0.88c-1.75,0-2.97-1.21-2.97-2.96c0-1.78,1.24-3,2.97-3
		C82.68,103.28,83.47,103.57,84.03,104.18z"/>
	<path d="M86.01,103.41v3.41c0,0.89,0.49,1.42,1.29,1.42c1.01,0,1.58-0.72,1.58-1.85v-2.97h1.08v5.69h-1.08v-0.88h-0.02
		c-0.3,0.64-1.03,1.02-1.87,1.02c-1.26,0-2.06-0.84-2.06-2.12v-3.71H86.01z"/>
	<path d="M92.77,109.1h-1.08v-9.07h1.08V109.1z"/>
	<path d="M95.57,103.41v3.41c0,0.89,0.49,1.42,1.3,1.42c1.01,0,1.58-0.72,1.58-1.85v-2.97h1.08v5.69h-1.08v-0.88h-0.02
		c-0.3,0.64-1.03,1.02-1.87,1.02c-1.26,0-2.06-0.84-2.06-2.12v-3.71H95.57z"/>
	<path d="M101.16,109.1v-5.69h1.01v0.89h0.02c0.23-0.53,0.98-1.03,1.82-1.03c0.84,0,1.4,0.35,1.77,1.06
		c0.36-0.66,1.06-1.06,1.8-1.06c1.44,0,2.16,0.85,2.16,2.47v3.36h-1.08v-3.23c0-1.12-0.4-1.6-1.22-1.6c-0.97,0-1.45,0.64-1.45,1.67
		v3.15h-1.08v-3.06c0-1.34-0.4-1.76-1.2-1.76c-0.89,0-1.48,0.74-1.48,1.82v3H101.16z"/>
</g>
</svg>
