<svg xmlns="http://www.w3.org/2000/svg" xmlns:xlink="http://www.w3.org/1999/xlink" viewBox="0 0 35 46"><path d="M 12.576 2.75 C 12.576 1.507 13.61 0.5 14.886 0.5 L 31.531 0.5 C 34.083 0.5 35.759 3.095 34.655 5.335 L 21.589 31.849 C 21.037 32.969 19.657 33.441 18.507 32.903 C 17.357 32.366 16.872 31.022 17.424 29.901 L 29.34 5.721 C 29.504 5.389 29.262 5 28.892 5 L 14.886 5 C 13.61 5 12.576 3.993 12.576 2.75 Z" fill="rgb(42,81,228)"></path><path d="M 22.666 43.25 C 22.666 44.493 21.632 45.5 20.356 45.5 L 3.711 45.5 C 1.16 45.5 -0.517 42.905 0.587 40.664 L 13.653 14.151 C 14.205 13.031 15.585 12.559 16.735 13.097 C 17.886 13.634 18.37 14.978 17.818 16.099 L 5.902 40.279 C 5.738 40.611 5.98 41 6.351 41 L 20.356 41 C 21.632 41 22.666 42.007 22.666 43.25 Z" fill="rgb(249,86,79)"></path></svg>