<svg xmlns="http://www.w3.org/2000/svg" xmlns:xlink="http://www.w3.org/1999/xlink" viewBox="0 0 139 35"><path d="M 9.949 13.01 C 10.216 13.01 10.432 13.092 10.597 13.258 C 10.775 13.411 10.864 13.615 10.864 13.87 C 10.864 14.125 10.775 14.336 10.597 14.501 C 10.419 14.667 10.204 14.75 9.949 14.75 L 1.258 14.75 C 0.991 14.75 0.762 14.661 0.572 14.482 C 0.394 14.291 0.305 14.081 0.305 13.851 C 0.305 13.647 0.375 13.456 0.514 13.277 L 8.291 3.103 L 1.906 3.103 C 1.639 3.103 1.417 3.02 1.239 2.854 C 1.073 2.689 0.991 2.478 0.991 2.223 C 0.991 1.968 1.073 1.764 1.239 1.611 C 1.417 1.445 1.639 1.363 1.906 1.363 L 10.064 1.363 C 10.318 1.363 10.547 1.452 10.75 1.63 C 10.953 1.796 11.055 2.006 11.055 2.261 C 11.055 2.44 10.985 2.631 10.845 2.835 L 3.068 13.01 Z" fill="rgb(7,18,50)"></path><path d="M 15.867 6.507 L 15.867 12.206 C 15.867 12.844 16.153 13.163 16.725 13.163 C 16.814 13.163 16.935 13.143 17.087 13.105 C 17.24 13.054 17.36 13.029 17.449 13.029 C 17.615 13.029 17.754 13.099 17.869 13.239 C 17.983 13.379 18.04 13.558 18.04 13.775 C 18.04 14.042 17.888 14.272 17.583 14.463 C 17.278 14.654 16.935 14.75 16.554 14.75 C 16.134 14.75 15.747 14.705 15.391 14.616 C 15.048 14.527 14.736 14.304 14.457 13.947 C 14.19 13.577 14.057 13.022 14.057 12.283 L 14.057 6.507 L 12.951 6.507 C 12.71 6.507 12.506 6.431 12.341 6.278 C 12.189 6.112 12.112 5.908 12.112 5.666 C 12.112 5.423 12.189 5.226 12.341 5.073 C 12.506 4.92 12.71 4.843 12.951 4.843 L 14.057 4.843 L 14.057 3.237 C 14.057 2.982 14.139 2.765 14.304 2.587 C 14.482 2.408 14.705 2.319 14.972 2.319 C 15.226 2.319 15.435 2.408 15.601 2.587 C 15.778 2.765 15.867 2.982 15.867 3.237 L 15.867 4.843 L 17.449 4.843 C 17.691 4.843 17.888 4.926 18.04 5.092 C 18.206 5.245 18.288 5.443 18.288 5.685 C 18.288 5.927 18.206 6.125 18.04 6.278 C 17.888 6.431 17.691 6.507 17.449 6.507 Z" fill="rgb(7,18,50)"></path><path d="M 29.076 9.357 C 29.064 9.586 28.968 9.784 28.791 9.95 C 28.613 10.103 28.403 10.179 28.162 10.179 L 21.452 10.179 C 21.541 11.11 21.89 11.856 22.5 12.417 C 23.123 12.978 23.879 13.258 24.769 13.258 C 25.379 13.258 25.874 13.169 26.255 12.991 C 26.637 12.812 26.973 12.582 27.266 12.302 C 27.456 12.187 27.64 12.13 27.818 12.13 C 28.034 12.13 28.212 12.206 28.352 12.359 C 28.505 12.512 28.581 12.691 28.581 12.895 C 28.581 13.163 28.454 13.405 28.2 13.622 C 27.831 13.991 27.342 14.304 26.732 14.559 C 26.122 14.814 25.499 14.941 24.864 14.941 C 23.835 14.941 22.926 14.724 22.138 14.291 C 21.363 13.857 20.76 13.252 20.328 12.474 C 19.908 11.696 19.699 10.817 19.699 9.835 C 19.699 8.764 19.915 7.827 20.347 7.024 C 20.791 6.208 21.369 5.583 22.081 5.149 C 22.805 4.716 23.581 4.499 24.407 4.499 C 25.22 4.499 25.982 4.709 26.694 5.13 C 27.405 5.551 27.977 6.131 28.409 6.871 C 28.841 7.61 29.064 8.439 29.076 9.357 Z M 24.407 6.182 C 23.695 6.182 23.079 6.386 22.558 6.794 C 22.037 7.189 21.694 7.808 21.528 8.649 L 27.151 8.649 L 27.151 8.496 C 27.088 7.82 26.783 7.266 26.236 6.832 C 25.703 6.399 25.093 6.182 24.407 6.182 Z" fill="rgb(7,18,50)"></path><path d="M 39.337 13.163 C 39.528 13.367 39.623 13.59 39.623 13.832 C 39.623 14.087 39.521 14.304 39.318 14.482 C 39.127 14.648 38.924 14.731 38.708 14.731 C 38.428 14.731 38.206 14.629 38.041 14.425 L 34.286 10.428 L 33.142 11.46 L 33.142 13.832 C 33.142 14.087 33.053 14.304 32.875 14.482 C 32.71 14.661 32.501 14.75 32.246 14.75 C 31.98 14.75 31.757 14.661 31.579 14.482 C 31.414 14.304 31.331 14.087 31.331 13.832 L 31.331 1.516 C 31.331 1.261 31.414 1.044 31.579 0.865 C 31.757 0.687 31.98 0.598 32.246 0.598 C 32.501 0.598 32.71 0.687 32.875 0.865 C 33.053 1.044 33.142 1.261 33.142 1.516 L 33.142 9.28 L 37.812 4.977 C 38.028 4.786 38.251 4.69 38.479 4.69 C 38.695 4.69 38.892 4.786 39.07 4.977 C 39.248 5.156 39.337 5.347 39.337 5.551 C 39.337 5.806 39.216 6.035 38.975 6.239 L 35.677 9.185 Z" fill="rgb(7,18,50)"></path><path d="M 56.778 2.147 C 57.083 2.312 57.236 2.567 57.236 2.912 C 57.236 3.141 57.159 3.352 57.007 3.543 C 56.854 3.747 56.645 3.849 56.378 3.849 C 56.2 3.849 56.028 3.804 55.863 3.715 C 55.075 3.269 54.224 3.046 53.309 3.046 C 52.356 3.046 51.511 3.256 50.774 3.677 C 50.05 4.097 49.484 4.69 49.078 5.455 C 48.671 6.208 48.468 7.075 48.468 8.056 C 48.468 9.115 48.677 10.026 49.097 10.791 C 49.516 11.556 50.094 12.143 50.831 12.551 C 51.568 12.946 52.394 13.143 53.309 13.143 C 54.249 13.143 55.101 12.914 55.863 12.455 C 56.016 12.379 56.181 12.34 56.359 12.34 C 56.638 12.34 56.861 12.449 57.026 12.665 C 57.178 12.857 57.255 13.061 57.255 13.277 C 57.255 13.43 57.21 13.577 57.121 13.717 C 57.045 13.845 56.937 13.947 56.797 14.023 C 56.301 14.304 55.742 14.527 55.12 14.693 C 54.51 14.858 53.906 14.941 53.309 14.941 C 52.076 14.941 50.939 14.667 49.897 14.119 C 48.868 13.571 48.042 12.774 47.419 11.728 C 46.809 10.683 46.504 9.459 46.504 8.056 C 46.504 6.769 46.797 5.608 47.381 4.576 C 47.978 3.53 48.792 2.714 49.821 2.128 C 50.863 1.528 52.026 1.229 53.309 1.229 C 54.542 1.229 55.698 1.535 56.778 2.147 Z" fill="rgb(7,18,50)"></path><path d="M 68.647 9.739 C 68.647 10.734 68.425 11.626 67.98 12.417 C 67.535 13.207 66.925 13.826 66.15 14.272 C 65.388 14.718 64.543 14.941 63.615 14.941 C 62.687 14.941 61.836 14.718 61.061 14.272 C 60.298 13.826 59.695 13.207 59.25 12.417 C 58.805 11.626 58.583 10.734 58.583 9.739 C 58.583 8.745 58.805 7.846 59.25 7.043 C 59.695 6.239 60.298 5.615 61.061 5.168 C 61.836 4.722 62.687 4.499 63.615 4.499 C 64.543 4.499 65.388 4.722 66.15 5.168 C 66.925 5.615 67.535 6.239 67.98 7.043 C 68.425 7.846 68.647 8.745 68.647 9.739 Z M 66.836 9.739 C 66.836 9.051 66.69 8.439 66.398 7.903 C 66.118 7.355 65.731 6.934 65.235 6.641 C 64.752 6.335 64.212 6.182 63.615 6.182 C 63.018 6.182 62.471 6.335 61.976 6.641 C 61.493 6.934 61.105 7.355 60.813 7.903 C 60.534 8.439 60.394 9.051 60.394 9.739 C 60.394 10.415 60.534 11.021 60.813 11.556 C 61.105 12.092 61.493 12.512 61.976 12.818 C 62.471 13.112 63.018 13.258 63.615 13.258 C 64.212 13.258 64.752 13.112 65.235 12.818 C 65.731 12.512 66.118 12.092 66.398 11.556 C 66.69 11.021 66.836 10.415 66.836 9.739 Z" fill="rgb(7,18,50)"></path><path d="M 75.841 4.499 C 78.129 4.499 79.272 5.876 79.272 8.63 L 79.272 13.832 C 79.272 14.087 79.183 14.304 79.005 14.482 C 78.84 14.661 78.624 14.75 78.357 14.75 C 78.103 14.75 77.887 14.661 77.709 14.482 C 77.544 14.304 77.461 14.087 77.461 13.832 L 77.461 8.649 C 77.461 7.897 77.29 7.298 76.947 6.851 C 76.604 6.405 76.045 6.182 75.269 6.182 C 74.761 6.182 74.297 6.297 73.878 6.526 C 73.471 6.743 73.147 7.043 72.906 7.425 C 72.677 7.795 72.563 8.203 72.563 8.649 L 72.563 13.832 C 72.563 14.087 72.474 14.304 72.296 14.482 C 72.131 14.661 71.915 14.75 71.648 14.75 C 71.381 14.75 71.165 14.667 71 14.501 C 70.835 14.323 70.752 14.1 70.752 13.832 L 70.752 5.647 C 70.752 5.392 70.835 5.175 71 4.996 C 71.178 4.818 71.394 4.729 71.648 4.729 C 71.915 4.729 72.131 4.818 72.296 4.996 C 72.474 5.175 72.563 5.392 72.563 5.647 L 72.563 6.316 C 72.893 5.806 73.351 5.379 73.935 5.035 C 74.532 4.678 75.168 4.499 75.841 4.499 Z" fill="rgb(7,18,50)"></path><path d="M 81.404 13.182 C 81.29 13.003 81.233 12.831 81.233 12.665 C 81.233 12.41 81.366 12.194 81.633 12.015 C 81.76 11.926 81.906 11.881 82.072 11.881 C 82.3 11.881 82.51 11.977 82.701 12.168 C 83.082 12.602 83.488 12.927 83.921 13.143 C 84.365 13.36 84.892 13.469 85.502 13.469 C 85.985 13.456 86.411 13.348 86.779 13.143 C 87.148 12.927 87.332 12.582 87.332 12.111 C 87.332 11.677 87.142 11.346 86.76 11.116 C 86.392 10.887 85.846 10.676 85.121 10.485 C 84.41 10.294 83.819 10.096 83.349 9.892 C 82.879 9.676 82.478 9.37 82.148 8.974 C 81.83 8.566 81.671 8.037 81.671 7.387 C 81.671 6.813 81.83 6.31 82.148 5.876 C 82.478 5.443 82.91 5.105 83.444 4.862 C 83.99 4.62 84.581 4.499 85.217 4.499 C 85.826 4.499 86.43 4.614 87.027 4.843 C 87.637 5.073 88.133 5.423 88.514 5.895 C 88.667 6.074 88.743 6.259 88.743 6.45 C 88.743 6.654 88.641 6.851 88.438 7.043 C 88.311 7.157 88.152 7.215 87.961 7.215 C 87.733 7.215 87.548 7.138 87.409 6.985 C 87.142 6.679 86.811 6.443 86.417 6.278 C 86.036 6.112 85.611 6.029 85.14 6.029 C 84.657 6.029 84.245 6.131 83.901 6.335 C 83.571 6.526 83.406 6.858 83.406 7.33 C 83.418 7.776 83.609 8.107 83.978 8.324 C 84.359 8.541 84.937 8.751 85.712 8.955 C 86.386 9.134 86.945 9.325 87.389 9.529 C 87.834 9.733 88.209 10.039 88.514 10.447 C 88.819 10.842 88.972 11.365 88.972 12.015 C 88.972 12.614 88.8 13.137 88.457 13.583 C 88.114 14.017 87.663 14.355 87.104 14.597 C 86.557 14.826 85.973 14.941 85.35 14.941 C 84.549 14.941 83.806 14.801 83.12 14.521 C 82.446 14.24 81.875 13.794 81.404 13.182 Z" fill="rgb(7,18,50)"></path><path d="M 98.493 4.729 C 98.76 4.729 98.976 4.818 99.142 4.996 C 99.32 5.175 99.408 5.392 99.408 5.647 L 99.408 10.734 C 99.408 12.06 99.04 13.093 98.303 13.832 C 97.579 14.559 96.549 14.922 95.215 14.922 C 93.894 14.922 92.871 14.559 92.146 13.832 C 91.422 13.093 91.06 12.06 91.06 10.734 L 91.06 5.647 C 91.06 5.392 91.142 5.175 91.308 4.996 C 91.486 4.818 91.702 4.729 91.956 4.729 C 92.222 4.729 92.439 4.818 92.604 4.996 C 92.782 5.175 92.871 5.392 92.871 5.647 L 92.871 10.734 C 92.871 12.404 93.652 13.239 95.215 13.239 C 95.99 13.239 96.581 13.029 96.988 12.608 C 97.394 12.187 97.598 11.563 97.598 10.734 L 97.598 5.647 C 97.598 5.392 97.68 5.175 97.845 4.996 C 98.023 4.818 98.239 4.729 98.493 4.729 Z" fill="rgb(7,18,50)"></path><path d="M 104.08 13.832 C 104.08 14.087 103.991 14.304 103.813 14.482 C 103.635 14.661 103.419 14.75 103.165 14.75 C 102.911 14.75 102.695 14.661 102.517 14.482 C 102.352 14.304 102.269 14.087 102.269 13.832 L 102.269 1.516 C 102.269 1.261 102.358 1.044 102.536 0.865 C 102.714 0.687 102.93 0.598 103.184 0.598 C 103.438 0.598 103.648 0.687 103.813 0.865 C 103.991 1.044 104.08 1.261 104.08 1.516 Z" fill="rgb(7,18,50)"></path><path d="M 109.588 6.507 L 109.588 12.206 C 109.588 12.844 109.874 13.163 110.446 13.163 C 110.535 13.163 110.656 13.143 110.808 13.105 C 110.961 13.054 111.081 13.029 111.17 13.029 C 111.335 13.029 111.475 13.099 111.59 13.239 C 111.704 13.379 111.761 13.558 111.761 13.775 C 111.761 14.042 111.609 14.272 111.304 14.463 C 110.999 14.654 110.656 14.75 110.274 14.75 C 109.855 14.75 109.468 14.705 109.112 14.616 C 108.769 14.527 108.457 14.304 108.178 13.947 C 107.911 13.577 107.777 13.022 107.777 12.283 L 107.777 6.507 L 106.672 6.507 C 106.431 6.507 106.227 6.431 106.062 6.278 C 105.91 6.112 105.833 5.908 105.833 5.666 C 105.833 5.423 105.91 5.226 106.062 5.073 C 106.227 4.92 106.431 4.843 106.672 4.843 L 107.777 4.843 L 107.777 3.237 C 107.777 2.982 107.86 2.765 108.025 2.587 C 108.203 2.408 108.426 2.319 108.692 2.319 C 108.947 2.319 109.156 2.408 109.321 2.587 C 109.499 2.765 109.588 2.982 109.588 3.237 L 109.588 4.843 L 111.17 4.843 C 111.412 4.843 111.609 4.926 111.761 5.092 C 111.926 5.245 112.009 5.443 112.009 5.685 C 112.009 5.927 111.926 6.125 111.761 6.278 C 111.609 6.431 111.412 6.507 111.17 6.507 Z" fill="rgb(7,18,50)"></path><path d="M 115.838 13.832 C 115.838 14.087 115.749 14.304 115.571 14.482 C 115.406 14.661 115.19 14.75 114.923 14.75 C 114.669 14.75 114.453 14.661 114.275 14.482 C 114.11 14.304 114.027 14.087 114.027 13.832 L 114.027 5.551 C 114.027 5.296 114.11 5.079 114.275 4.901 C 114.453 4.722 114.669 4.633 114.923 4.633 C 115.19 4.633 115.406 4.722 115.571 4.901 C 115.749 5.079 115.838 5.296 115.838 5.551 Z M 114.923 3.371 C 114.554 3.371 114.288 3.307 114.122 3.179 C 113.97 3.039 113.894 2.822 113.894 2.529 L 113.894 2.223 C 113.894 1.917 113.976 1.7 114.142 1.573 C 114.319 1.445 114.586 1.382 114.942 1.382 C 115.298 1.382 115.552 1.452 115.704 1.592 C 115.87 1.72 115.952 1.93 115.952 2.223 L 115.952 2.529 C 115.952 2.835 115.87 3.052 115.704 3.179 C 115.539 3.307 115.279 3.371 114.923 3.371 Z" fill="rgb(7,18,50)"></path><path d="M 123.53 4.499 C 125.817 4.499 126.961 5.876 126.961 8.63 L 126.961 13.832 C 126.961 14.087 126.872 14.304 126.694 14.482 C 126.529 14.661 126.313 14.75 126.046 14.75 C 125.792 14.75 125.576 14.661 125.398 14.482 C 125.233 14.304 125.15 14.087 125.15 13.832 L 125.15 8.649 C 125.15 7.897 124.979 7.298 124.636 6.851 C 124.292 6.405 123.733 6.182 122.958 6.182 C 122.45 6.182 121.986 6.297 121.567 6.526 C 121.16 6.743 120.836 7.043 120.595 7.425 C 120.366 7.795 120.252 8.203 120.252 8.649 L 120.252 13.832 C 120.252 14.087 120.163 14.304 119.985 14.482 C 119.82 14.661 119.604 14.75 119.337 14.75 C 119.07 14.75 118.854 14.667 118.689 14.501 C 118.523 14.323 118.441 14.1 118.441 13.832 L 118.441 5.647 C 118.441 5.392 118.523 5.175 118.689 4.996 C 118.867 4.818 119.083 4.729 119.337 4.729 C 119.604 4.729 119.82 4.818 119.985 4.996 C 120.163 5.175 120.252 5.392 120.252 5.647 L 120.252 6.316 C 120.582 5.806 121.039 5.379 121.624 5.035 C 122.221 4.678 122.857 4.499 123.53 4.499 Z" fill="rgb(7,18,50)"></path><path d="M 138.014 4.595 C 138.28 4.595 138.496 4.684 138.662 4.862 C 138.84 5.028 138.928 5.251 138.928 5.532 L 138.928 13.947 C 138.928 14.979 138.706 15.84 138.261 16.529 C 137.829 17.23 137.238 17.746 136.489 18.078 C 135.739 18.409 134.894 18.575 133.954 18.575 C 133.445 18.575 132.848 18.486 132.162 18.307 C 131.488 18.129 131.056 17.944 130.866 17.753 C 130.472 17.549 130.275 17.294 130.275 16.988 C 130.275 16.911 130.3 16.809 130.351 16.682 C 130.491 16.363 130.726 16.203 131.056 16.203 C 131.222 16.203 131.4 16.242 131.59 16.318 C 132.607 16.713 133.401 16.911 133.973 16.911 C 134.989 16.911 135.764 16.663 136.298 16.165 C 136.845 15.681 137.118 15.011 137.118 14.157 L 137.118 13.124 C 136.851 13.622 136.4 14.049 135.764 14.406 C 135.142 14.763 134.481 14.941 133.782 14.941 C 132.905 14.941 132.105 14.718 131.38 14.272 C 130.656 13.826 130.084 13.207 129.665 12.417 C 129.258 11.614 129.055 10.715 129.055 9.72 C 129.055 8.726 129.258 7.833 129.665 7.043 C 130.084 6.239 130.65 5.615 131.361 5.168 C 132.086 4.722 132.88 4.499 133.744 4.499 C 134.443 4.499 135.091 4.658 135.688 4.977 C 136.298 5.296 136.775 5.685 137.118 6.144 L 137.118 5.532 C 137.118 5.264 137.2 5.041 137.366 4.862 C 137.531 4.684 137.747 4.595 138.014 4.595 Z M 133.992 13.258 C 134.614 13.258 135.167 13.112 135.65 12.818 C 136.133 12.512 136.508 12.092 136.775 11.556 C 137.054 11.008 137.194 10.396 137.194 9.72 C 137.194 9.044 137.054 8.439 136.775 7.903 C 136.508 7.368 136.133 6.947 135.65 6.641 C 135.167 6.335 134.614 6.182 133.992 6.182 C 133.382 6.182 132.835 6.335 132.353 6.641 C 131.87 6.947 131.489 7.374 131.209 7.922 C 130.942 8.458 130.809 9.057 130.809 9.72 C 130.809 10.383 130.942 10.989 131.209 11.537 C 131.489 12.072 131.87 12.493 132.353 12.799 C 132.835 13.105 133.382 13.258 133.992 13.258 Z" fill="rgb(7,18,50)"></path><g transform="translate(85.383 23.623)" id="ss3737366210_15"><path d="M 8.862 0 C 9.056 0.01 9.222 0.083 9.358 0.219 C 9.494 0.346 9.562 0.507 9.562 0.702 L 9.562 9.55 C 9.562 9.745 9.494 9.911 9.358 10.047 C 9.231 10.184 9.061 10.252 8.847 10.252 C 8.634 10.252 8.459 10.189 8.323 10.062 C 8.187 9.925 8.119 9.755 8.119 9.55 L 8.119 2.779 L 5.291 7.078 C 5.223 7.166 5.135 7.239 5.029 7.298 C 4.931 7.356 4.829 7.381 4.723 7.371 C 4.625 7.381 4.523 7.356 4.416 7.298 C 4.319 7.239 4.237 7.166 4.169 7.078 L 1.326 2.647 L 1.326 9.55 C 1.326 9.755 1.263 9.925 1.137 10.062 C 1.02 10.189 0.86 10.252 0.656 10.252 C 0.462 10.252 0.301 10.189 0.175 10.062 C 0.058 9.925 0 9.755 0 9.55 L 0 0.702 C 0 0.517 0.068 0.356 0.204 0.219 C 0.34 0.073 0.51 0 0.714 0 C 0.831 0 0.943 0.029 1.049 0.088 C 1.166 0.146 1.258 0.224 1.326 0.322 L 4.781 5.572 L 8.279 0.322 C 8.434 0.107 8.629 0 8.862 0 Z" fill="#2A51E4"></path><path d="M 18.005 2.486 C 18.209 2.486 18.374 2.554 18.5 2.691 C 18.636 2.818 18.704 2.988 18.704 3.203 L 18.704 9.55 C 18.704 9.745 18.636 9.911 18.5 10.047 C 18.374 10.184 18.209 10.252 18.005 10.252 C 17.801 10.252 17.635 10.189 17.509 10.062 C 17.383 9.925 17.32 9.755 17.32 9.55 L 17.32 9.17 C 17.067 9.511 16.722 9.804 16.285 10.047 C 15.848 10.281 15.376 10.398 14.871 10.398 C 14.21 10.398 13.608 10.228 13.064 9.886 C 12.529 9.545 12.107 9.072 11.796 8.468 C 11.494 7.854 11.344 7.166 11.344 6.406 C 11.344 5.645 11.494 4.963 11.796 4.358 C 12.107 3.744 12.529 3.266 13.064 2.925 C 13.598 2.584 14.186 2.413 14.827 2.413 C 15.342 2.413 15.818 2.52 16.256 2.735 C 16.703 2.949 17.057 3.222 17.32 3.554 L 17.32 3.203 C 17.32 2.998 17.383 2.827 17.509 2.691 C 17.635 2.554 17.801 2.486 18.005 2.486 Z M 15.031 9.111 C 15.488 9.111 15.891 8.994 16.241 8.76 C 16.601 8.526 16.878 8.205 17.072 7.795 C 17.276 7.386 17.378 6.922 17.378 6.406 C 17.378 5.899 17.276 5.44 17.072 5.031 C 16.878 4.621 16.601 4.3 16.241 4.066 C 15.891 3.822 15.488 3.7 15.031 3.7 C 14.575 3.7 14.167 3.817 13.807 4.051 C 13.457 4.285 13.18 4.607 12.976 5.016 C 12.782 5.426 12.685 5.889 12.685 6.406 C 12.685 6.922 12.782 7.386 12.976 7.795 C 13.18 8.205 13.457 8.526 13.807 8.76 C 14.167 8.994 14.575 9.111 15.031 9.111 Z" fill="#2A51E4"></path><path d="M 22.833 3.949 L 22.833 8.307 C 22.833 8.794 23.052 9.038 23.489 9.038 C 23.557 9.038 23.649 9.024 23.766 8.994 C 23.883 8.955 23.975 8.936 24.043 8.936 C 24.169 8.936 24.276 8.989 24.364 9.097 C 24.451 9.204 24.495 9.34 24.495 9.506 C 24.495 9.711 24.378 9.886 24.145 10.033 C 23.912 10.179 23.649 10.252 23.358 10.252 C 23.037 10.252 22.741 10.218 22.469 10.15 C 22.206 10.081 21.968 9.911 21.754 9.638 C 21.55 9.355 21.448 8.931 21.448 8.365 L 21.448 3.949 L 20.603 3.949 C 20.418 3.949 20.263 3.89 20.137 3.773 C 20.02 3.646 19.962 3.49 19.962 3.305 C 19.962 3.12 20.02 2.969 20.137 2.852 C 20.263 2.735 20.418 2.676 20.603 2.676 L 21.448 2.676 L 21.448 1.448 C 21.448 1.253 21.512 1.087 21.638 0.951 C 21.774 0.814 21.944 0.746 22.148 0.746 C 22.342 0.746 22.503 0.814 22.629 0.951 C 22.765 1.087 22.833 1.253 22.833 1.448 L 22.833 2.676 L 24.043 2.676 C 24.227 2.676 24.378 2.74 24.495 2.866 C 24.621 2.983 24.684 3.135 24.684 3.32 C 24.684 3.505 24.621 3.656 24.495 3.773 C 24.378 3.89 24.227 3.949 24.043 3.949 Z" fill="#2A51E4"></path><path d="M 28.37 3.949 L 28.37 8.307 C 28.37 8.794 28.589 9.038 29.026 9.038 C 29.094 9.038 29.186 9.024 29.303 8.994 C 29.42 8.955 29.512 8.936 29.58 8.936 C 29.706 8.936 29.813 8.989 29.901 9.097 C 29.988 9.204 30.032 9.34 30.032 9.506 C 30.032 9.711 29.915 9.886 29.682 10.033 C 29.449 10.179 29.186 10.252 28.895 10.252 C 28.574 10.252 28.278 10.218 28.006 10.15 C 27.743 10.081 27.505 9.911 27.292 9.638 C 27.087 9.355 26.985 8.931 26.985 8.365 L 26.985 3.949 L 26.14 3.949 C 25.955 3.949 25.8 3.89 25.674 3.773 C 25.557 3.646 25.499 3.49 25.499 3.305 C 25.499 3.12 25.557 2.969 25.674 2.852 C 25.8 2.735 25.955 2.676 26.14 2.676 L 26.985 2.676 L 26.985 1.448 C 26.985 1.253 27.049 1.087 27.175 0.951 C 27.311 0.814 27.481 0.746 27.685 0.746 C 27.879 0.746 28.04 0.814 28.166 0.951 C 28.302 1.087 28.37 1.253 28.37 1.448 L 28.37 2.676 L 29.58 2.676 C 29.765 2.676 29.915 2.74 30.032 2.866 C 30.158 2.983 30.221 3.135 30.221 3.32 C 30.221 3.505 30.158 3.656 30.032 3.773 C 29.915 3.89 29.765 3.949 29.58 3.949 Z" fill="#2A51E4"></path><path d="M 38.471 6.128 C 38.461 6.303 38.389 6.454 38.253 6.581 C 38.116 6.698 37.956 6.757 37.772 6.757 L 32.641 6.757 C 32.709 7.468 32.976 8.039 33.443 8.468 C 33.919 8.897 34.497 9.111 35.177 9.111 C 35.643 9.111 36.022 9.043 36.314 8.907 C 36.605 8.77 36.863 8.595 37.086 8.38 C 37.232 8.292 37.373 8.248 37.509 8.248 C 37.674 8.248 37.81 8.307 37.917 8.424 C 38.034 8.541 38.092 8.678 38.092 8.834 C 38.092 9.038 37.995 9.224 37.801 9.389 C 37.519 9.672 37.145 9.911 36.678 10.106 C 36.212 10.301 35.736 10.398 35.25 10.398 C 34.463 10.398 33.768 10.233 33.166 9.901 C 32.573 9.57 32.111 9.106 31.781 8.512 C 31.46 7.917 31.3 7.244 31.3 6.493 C 31.3 5.674 31.465 4.958 31.795 4.344 C 32.136 3.72 32.578 3.242 33.122 2.91 C 33.676 2.579 34.268 2.413 34.9 2.413 C 35.522 2.413 36.105 2.574 36.649 2.896 C 37.193 3.217 37.631 3.661 37.961 4.227 C 38.291 4.792 38.461 5.426 38.471 6.128 Z M 34.9 3.7 C 34.356 3.7 33.885 3.856 33.486 4.168 C 33.088 4.47 32.825 4.943 32.699 5.587 L 36.999 5.587 L 36.999 5.47 C 36.95 4.953 36.717 4.529 36.299 4.197 C 35.891 3.866 35.425 3.7 34.9 3.7 Z" fill="#2A51E4"></path><path d="M 43.883 2.413 C 44.136 2.413 44.355 2.481 44.539 2.618 C 44.724 2.745 44.816 2.905 44.816 3.101 C 44.816 3.334 44.753 3.515 44.627 3.642 C 44.51 3.759 44.364 3.817 44.189 3.817 C 44.102 3.817 43.971 3.788 43.796 3.729 C 43.592 3.661 43.431 3.627 43.315 3.627 C 43.014 3.627 42.717 3.734 42.426 3.949 C 42.144 4.153 41.911 4.441 41.726 4.812 C 41.551 5.172 41.464 5.577 41.464 6.025 L 41.464 9.55 C 41.464 9.745 41.396 9.911 41.26 10.047 C 41.133 10.184 40.968 10.252 40.764 10.252 C 40.56 10.252 40.395 10.189 40.269 10.062 C 40.142 9.925 40.079 9.755 40.079 9.55 L 40.079 3.291 C 40.079 3.096 40.142 2.93 40.269 2.793 C 40.405 2.657 40.57 2.589 40.764 2.589 C 40.968 2.589 41.133 2.657 41.26 2.793 C 41.396 2.93 41.464 3.096 41.464 3.291 L 41.464 4.037 C 41.678 3.559 41.998 3.174 42.426 2.881 C 42.853 2.579 43.339 2.423 43.883 2.413 Z" fill="#2A51E4"></path><path d="M 45.663 9.053 C 45.575 8.916 45.532 8.785 45.532 8.658 C 45.532 8.463 45.634 8.297 45.838 8.161 C 45.935 8.092 46.047 8.058 46.173 8.058 C 46.348 8.058 46.508 8.131 46.654 8.278 C 46.945 8.609 47.256 8.858 47.587 9.024 C 47.927 9.189 48.33 9.272 48.797 9.272 C 49.166 9.262 49.491 9.18 49.773 9.024 C 50.055 8.858 50.196 8.595 50.196 8.234 C 50.196 7.902 50.05 7.649 49.759 7.473 C 49.477 7.298 49.059 7.137 48.505 6.991 C 47.961 6.845 47.509 6.693 47.15 6.537 C 46.79 6.372 46.484 6.138 46.231 5.835 C 45.988 5.523 45.867 5.119 45.867 4.621 C 45.867 4.183 45.988 3.798 46.231 3.466 C 46.484 3.135 46.814 2.876 47.222 2.691 C 47.64 2.506 48.092 2.413 48.578 2.413 C 49.044 2.413 49.506 2.501 49.963 2.676 C 50.429 2.852 50.808 3.12 51.1 3.481 C 51.216 3.617 51.274 3.759 51.274 3.905 C 51.274 4.061 51.197 4.212 51.041 4.358 C 50.944 4.446 50.823 4.49 50.677 4.49 C 50.502 4.49 50.361 4.431 50.254 4.314 C 50.05 4.08 49.797 3.9 49.496 3.773 C 49.205 3.646 48.879 3.583 48.52 3.583 C 48.15 3.583 47.835 3.661 47.572 3.817 C 47.32 3.963 47.193 4.217 47.193 4.578 C 47.203 4.919 47.349 5.172 47.631 5.338 C 47.922 5.504 48.364 5.665 48.957 5.821 C 49.472 5.957 49.9 6.104 50.24 6.259 C 50.58 6.415 50.866 6.649 51.1 6.961 C 51.333 7.264 51.449 7.663 51.449 8.161 C 51.449 8.619 51.318 9.019 51.056 9.36 C 50.793 9.691 50.449 9.95 50.021 10.135 C 49.603 10.311 49.156 10.398 48.68 10.398 C 48.068 10.398 47.499 10.291 46.975 10.077 C 46.46 9.862 46.022 9.521 45.663 9.053 Z" fill="#2A51E4"></path></g></svg>