<svg xmlns="http://www.w3.org/2000/svg" width="170" height="56" viewBox="0 0 170 56" fill="none"><path d="M28.2667 31.669C28.2667 33.211 27.0027 34.4669 25.451 34.4669C23.8992 34.4669 22.6352 33.211 22.6352 31.669C22.6352 30.127 23.8992 28.871 25.451 28.871C27.0027 28.871 28.2667 30.127 28.2667 31.669ZM24.9128 17.443C24.9128 14.2098 22.2723 11.5859 19.0185 11.5859C17.3917 11.5859 15.9275 12.245 14.8513 13.302C13.7875 14.359 13.1243 15.8264 13.1243 17.443C13.1243 20.6762 15.7648 23.3 19.0185 23.3H24.9128V17.443ZM33.335 21.0368C31.7832 21.0368 30.5193 22.2928 30.5193 23.8347C30.5193 25.3767 31.7832 26.6327 33.335 26.6327C34.8868 26.6327 36.1508 25.3767 36.1508 23.8347C36.1508 22.2928 34.8868 21.0368 33.335 21.0368Z" fill="#0897B2"></path><path d="M30.4694 16.0112C30.4444 15.8122 30.4694 16.036 30.3443 15.3645C29.3682 10.0298 24.6627 5.98828 19.0188 5.98828C15.8401 5.98828 12.9618 7.26912 10.8719 9.34582C8.78197 11.4225 7.49299 14.2826 7.49299 17.4412C7.49299 23.0496 11.5602 27.7252 16.9288 28.6952C17.6046 28.8195 17.3668 28.7822 17.5796 28.8195C19.1314 28.8195 20.3953 30.0755 20.3953 31.6175C20.3953 33.1595 19.1314 34.4154 17.5796 34.4154C17.5421 34.4154 17.5045 34.4154 17.467 34.4154C17.3543 34.4154 17.2417 34.403 17.1291 34.3781C15.4772 34.204 13.8753 33.7812 12.3361 33.1346C10.2962 32.2766 8.4566 31.0455 6.8923 29.4911C5.31548 27.9242 4.08907 26.1086 3.22558 24.0817C2.32454 21.9801 1.87402 19.7418 1.87402 17.4537C1.87402 15.1531 2.32454 12.9272 3.22558 10.8256C4.08907 8.79867 5.328 6.97067 6.8923 5.41625C8.46911 3.8494 10.2962 2.63074 12.3361 1.7727C14.451 0.877359 16.7036 0.429688 19.0062 0.429688C21.3089 0.429688 23.5615 0.877359 25.6764 1.7727C27.7163 2.63074 29.5559 3.86184 31.1202 5.41625C32.697 6.98311 33.9234 8.79867 34.7869 10.8256C35.4376 12.3552 35.8506 13.9469 36.0383 15.5884C36.0508 15.7003 36.0634 15.8122 36.0759 15.9241C36.0759 15.9614 36.0759 15.9987 36.0759 16.036C36.0759 17.578 34.8119 18.834 33.2601 18.834C31.7084 18.834 30.4694 17.5531 30.4694 16.0112ZM33.3352 28.8444C31.7834 28.8444 30.5195 30.1004 30.5195 31.6424C30.5195 33.1843 31.7834 34.4403 33.3352 34.4403C34.887 34.4403 36.151 33.1843 36.151 31.6424C36.151 30.1004 34.887 28.8444 33.3352 28.8444Z" fill="#004059"></path><path d="M160.018 20.1379C154.537 20.1379 150.082 15.711 150.082 10.2643C150.082 4.8176 154.537 0.390625 160.018 0.390625C165.5 0.390625 169.955 4.8176 169.955 10.2643C169.955 11.3959 169.029 12.3161 167.89 12.3161H154.587C155.426 14.4923 157.541 16.0467 160.018 16.0467C161.295 16.0467 162.509 15.6363 163.522 14.8778C164.436 14.1938 165.725 14.3679 166.413 15.2757C167.102 16.1835 166.926 17.4643 166.013 18.1483C164.286 19.4416 162.208 20.1379 160.018 20.1379ZM154.587 8.21245H165.45C164.611 6.03627 162.496 4.48185 160.018 4.48185C157.541 4.48185 155.426 6.03627 154.587 8.21245Z" fill="#004059"></path><path d="M140.12 20.1379C134.639 20.1379 130.184 15.711 130.184 10.2643C130.184 4.8176 134.639 0.390625 140.12 0.390625C142.673 0.390625 145.088 1.34815 146.94 3.08909C147.766 3.87252 147.804 5.16579 147.028 5.98652C146.24 6.80726 144.938 6.84456 144.112 6.07357C143.023 5.05387 141.609 4.49428 140.12 4.49428C136.916 4.49428 134.313 7.08083 134.313 10.2643C134.313 13.4477 136.916 16.0343 140.12 16.0343C141.609 16.0343 143.023 15.4747 144.112 14.455C144.938 13.6716 146.24 13.7089 147.028 14.542C147.816 15.3628 147.779 16.656 146.94 17.4395C145.101 19.1804 142.673 20.1379 140.12 20.1379Z" fill="#004059"></path><path d="M74.8827 20.0005C74.0693 20.0005 73.3309 19.5279 73.0056 18.7942L66.0225 3.42415C65.5595 2.39202 66.01 1.17336 67.0487 0.713252C68.0874 0.253144 69.3138 0.700816 69.7768 1.73295L74.8827 12.9745L79.9886 1.73295C80.4516 0.700816 81.678 0.240709 82.7167 0.713252C83.7554 1.17336 84.2185 2.39202 83.7429 3.42415L76.7724 18.7942C76.4345 19.5279 75.6962 20.0005 74.8827 20.0005Z" fill="#004059"></path><path d="M117.807 0.527344C116.055 0.527344 114.416 1.04963 113.039 1.93254C112.764 1.1118 112.001 0.527344 111.087 0.527344C109.948 0.527344 109.022 1.44756 109.022 2.57917V17.9617C109.022 19.0933 109.948 20.0135 111.087 20.0135C112.226 20.0135 113.152 19.0933 113.152 17.9617V9.25695C113.152 6.7077 115.242 4.631 117.807 4.631C120.373 4.631 122.463 6.7077 122.463 9.25695V17.9492C122.463 19.0809 123.389 20.0011 124.528 20.0011C125.666 20.0011 126.592 19.0809 126.592 17.9492V9.25695C126.592 4.44447 122.65 0.527344 117.807 0.527344Z" fill="#004059"></path><path d="M105.406 10.2643C105.406 4.8176 100.951 0.390625 95.4696 0.390625C89.9883 0.390625 85.5332 4.8176 85.5332 10.2643C85.5332 15.711 89.9883 20.1379 95.4696 20.1379C97.6471 20.1379 99.662 19.4291 101.301 18.2478C101.452 19.2426 102.302 20.0011 103.341 20.0011C104.48 20.0011 105.406 19.0809 105.406 17.9493V10.2643ZM95.4696 16.0343C92.2659 16.0343 89.6629 13.4477 89.6629 10.2643C89.6629 7.08083 92.2659 4.49428 95.4696 4.49428C98.6733 4.49428 101.276 7.08083 101.276 10.2643C101.289 13.4477 98.6733 16.0343 95.4696 16.0343Z" fill="#004059"></path><path d="M64.2459 10.2643C64.2459 4.8176 59.7908 0.390625 54.3095 0.390625C48.8282 0.390625 44.373 4.8176 44.373 10.2643C44.373 15.711 48.8282 20.1379 54.3095 20.1379C56.487 20.1379 58.5018 19.4291 60.1412 18.2478C60.2914 19.2426 61.1423 20.0011 62.181 20.0011C63.3198 20.0011 64.2459 19.0809 64.2459 17.9493V10.2643ZM54.3095 16.0343C51.1058 16.0343 48.5028 13.4477 48.5028 10.2643C48.5028 7.08083 51.1058 4.49428 54.3095 4.49428C57.5132 4.49428 60.1162 7.08083 60.1162 10.2643C60.1162 13.4477 57.5132 16.0343 54.3095 16.0343Z" fill="#004059"></path><path d="M61.2053 34.4504C60.4419 34.4504 59.7411 34.2514 59.0778 33.8659C58.4396 33.5053 57.9265 32.9954 57.5386 32.3488C57.1506 31.6897 56.9629 30.9809 56.9629 30.2224C56.9629 29.4638 57.1506 28.7674 57.526 28.1208C57.889 27.4617 58.3895 26.9394 59.0153 26.5664C59.6785 26.156 60.4169 25.957 61.2178 25.957C62.3941 25.957 63.3953 26.3798 64.2463 27.2254C64.3714 27.3622 64.434 27.5114 64.434 27.6731C64.434 27.8596 64.3714 28.0089 64.2463 28.1332C64.0961 28.2576 63.9459 28.3322 63.7832 28.3322C63.5955 28.3322 63.4328 28.27 63.3077 28.1456C62.732 27.5736 62.0312 27.2876 61.2053 27.2876C60.4043 27.2876 59.7161 27.5736 59.1154 28.1332C58.5522 28.7177 58.2644 29.4141 58.2644 30.2224C58.2644 31.0182 58.5397 31.6897 59.0903 32.2742C59.6535 32.8711 60.3543 33.1695 61.1802 33.1695C62.0062 33.1695 62.707 32.8835 63.2952 32.3115C63.4328 32.1871 63.5955 32.125 63.7582 32.1374C63.9334 32.1374 64.0836 32.1996 64.2087 32.2991C64.3339 32.4234 64.3964 32.5851 64.3964 32.7592C64.3964 32.9457 64.3339 33.1073 64.2212 33.2317C63.3953 34.04 62.3691 34.4504 61.2053 34.4504Z" fill="#0897B2"></path><path d="M68.9389 33.2185C68.113 32.3729 67.6875 31.3781 67.6875 30.2216C67.6875 29.4631 67.8752 28.7418 68.2632 28.0828C68.6386 27.4361 69.1517 26.9263 69.8024 26.5532C70.4657 26.1677 71.179 25.9688 71.9549 25.9688C72.7308 25.9688 73.4566 26.1677 74.1074 26.5532C74.7581 26.9387 75.2712 27.4486 75.6467 28.0828C76.0346 28.7543 76.2223 29.4631 76.2223 30.2216C76.2223 31.0797 75.9845 31.8631 75.509 32.5719C75.0335 33.2807 74.3952 33.803 73.5818 34.1263C72.7934 34.4621 71.9799 34.5367 71.1164 34.3626C70.278 34.2009 69.5521 33.8154 68.9389 33.2185ZM71.9549 33.1688C72.7934 33.1688 73.4942 32.8828 74.0573 32.3108C74.6205 31.7263 74.9083 31.0299 74.9083 30.2216C74.9083 29.4009 74.6205 28.717 74.0573 28.1449C73.4817 27.5729 72.7809 27.2869 71.9549 27.2869C71.129 27.2869 70.4282 27.5729 69.865 28.1449C69.3019 28.7045 69.014 29.4009 69.014 30.2216C69.014 31.0424 69.3019 31.7387 69.865 32.3108C70.4031 32.8828 71.1039 33.1688 71.9549 33.1688Z" fill="#0897B2"></path><path d="M80.3145 33.7412V26.7028C80.3145 26.5162 80.377 26.367 80.5022 26.2427C80.6273 26.1183 80.7775 26.0561 80.9652 26.0561H80.9777C81.0153 26.0561 81.0528 26.0561 81.0778 26.0686L81.1654 26.0934C81.203 26.1059 81.2781 26.1432 81.3657 26.1929L81.4282 26.2427C81.4658 26.28 81.5033 26.3297 81.5409 26.4043L85.4328 31.8137V26.6779C85.4328 26.4914 85.4954 26.3421 85.6206 26.2178C85.7457 26.0934 85.9084 26.0312 86.0836 26.0312C86.2713 26.0312 86.434 26.0934 86.5591 26.2178C86.6843 26.3546 86.7468 26.5038 86.7468 26.6779V33.7412C86.7468 33.8904 86.6968 34.0147 86.6092 34.1266C86.5216 34.2386 86.409 34.3132 86.2838 34.3505C86.2713 34.3505 86.2463 34.3505 86.2338 34.3505C86.2212 34.3505 86.2087 34.3629 86.1962 34.3754H86.1712H86.0961C85.9459 34.3754 85.8083 34.3256 85.6956 34.2261C85.6331 34.1888 85.5955 34.1515 85.583 34.1266L81.6285 28.6302V33.7412C81.6285 33.9277 81.5659 34.0769 81.4407 34.2013C81.3156 34.3256 81.1529 34.3878 80.9652 34.3878C80.7775 34.3878 80.6273 34.3256 80.5022 34.2013C80.377 34.0769 80.3145 33.9152 80.3145 33.7412Z" fill="#0897B2"></path><path d="M94.3932 34.4496C93.755 34.4496 93.1668 34.288 92.6412 33.9771C92.1281 33.6787 91.7652 33.2932 91.5524 32.8455C91.5149 32.746 91.4774 32.6217 91.4648 32.4973C91.4648 32.4476 91.4774 32.3729 91.5024 32.2859C91.5399 32.1491 91.6526 32.0372 91.8152 31.9501C91.9154 31.9004 92.003 31.8755 92.1031 31.8755C92.2908 31.8755 92.491 32.0123 92.7038 32.261C93.0917 32.8579 93.6674 33.1564 94.4433 33.1564C94.8688 33.1564 95.2317 33.0569 95.5195 32.8455C95.8574 32.6217 96.0201 32.3232 96.0201 31.9626C96.0201 31.6144 95.8574 31.3408 95.5195 31.1418C95.3193 31.0299 95.0314 30.9304 94.6435 30.8434L94.4558 30.7937C93.6048 30.632 92.929 30.3709 92.466 30.0102C91.9279 29.575 91.6526 29.0278 91.6526 28.3812C91.6526 27.6848 91.9404 27.1128 92.5035 26.6527C93.0417 26.2175 93.6674 25.9936 94.4057 25.9688C94.9313 25.9688 95.4194 26.0682 95.8699 26.2796C96.3455 26.5035 96.6833 26.8144 96.9086 27.1874C96.9587 27.262 96.9837 27.3491 96.9837 27.4361C96.9837 27.4734 96.9837 27.5107 96.9712 27.5605C96.9211 27.6848 96.8711 27.7967 96.796 27.8589C96.6834 27.9584 96.5332 28.0206 96.358 28.0206C96.1953 28.0206 96.0701 27.9833 95.9825 27.9087C95.7323 27.6973 95.4945 27.5356 95.2817 27.4237C95.0314 27.3242 94.7436 27.262 94.4182 27.262C94.0178 27.262 93.6799 27.3615 93.3921 27.5605C93.0917 27.747 92.9415 28.0206 92.9415 28.3563C92.9541 28.6921 93.1543 28.9657 93.5172 29.1522C93.78 29.289 94.2305 29.4133 94.8562 29.5253C95.5946 29.7118 96.1577 29.9729 96.5457 30.2838C97.0588 30.6817 97.3091 31.2165 97.3091 31.888C97.3091 32.6092 97.0212 33.2185 96.4581 33.716C95.8949 34.2134 95.1941 34.4496 94.3932 34.4496Z" fill="#0897B2"></path><path d="M105.168 34.4375C104.28 34.4375 103.529 34.1391 102.916 33.5546C102.315 32.9702 102.015 32.2614 102.015 31.4033V26.7028C102.015 26.5162 102.077 26.367 102.215 26.2302C102.34 26.1059 102.503 26.0312 102.678 26.0312C102.866 26.0312 103.016 26.0934 103.141 26.2302C103.266 26.3546 103.329 26.5162 103.329 26.7028V31.3784C103.329 31.8759 103.504 32.2987 103.854 32.6468C104.217 33.0075 104.655 33.1816 105.168 33.1816C105.681 33.1816 106.107 33.0075 106.445 32.6468C106.77 32.2987 106.933 31.8759 106.933 31.3784V26.6779C106.933 26.4914 106.995 26.3421 107.133 26.2178C107.258 26.0934 107.408 26.0312 107.584 26.0312C107.771 26.0312 107.921 26.0934 108.059 26.2178C108.184 26.3421 108.259 26.4914 108.259 26.6779V31.4157C108.259 32.2862 107.971 33.0075 107.408 33.5671C106.795 34.1515 106.057 34.4375 105.168 34.4375Z" fill="#0897B2"></path><path d="M117.207 34.3754H113.741L113.691 34.3629C113.541 34.338 113.416 34.2634 113.328 34.1515C113.228 34.0396 113.178 33.9028 113.178 33.7412V26.6903C113.178 26.5038 113.24 26.3546 113.378 26.2178C113.503 26.0934 113.653 26.0312 113.828 26.0312C114.016 26.0312 114.179 26.0934 114.304 26.2178C114.429 26.3546 114.504 26.5038 114.504 26.6903V33.0945H117.22C117.495 33.0945 117.695 33.2313 117.808 33.5049C117.921 33.7785 117.883 34.0147 117.695 34.2013C117.533 34.3132 117.383 34.3754 117.207 34.3754Z" fill="#0897B2"></path><path d="M122.451 33.7412V27.3245H120.711C120.524 27.3245 120.373 27.2623 120.248 27.138C120.123 27.0136 120.061 26.8644 120.061 26.6779C120.061 26.4914 120.123 26.3421 120.248 26.2178C120.373 26.0934 120.524 26.0312 120.711 26.0312H125.492C125.68 26.0312 125.83 26.0934 125.955 26.2178C126.08 26.3421 126.143 26.5038 126.143 26.6779C126.143 26.8769 126.08 27.0261 125.955 27.138C125.817 27.2623 125.654 27.3245 125.479 27.3245H123.74V33.7412C123.74 33.9277 123.677 34.0769 123.54 34.2013C123.402 34.3256 123.252 34.3878 123.064 34.3878C122.876 34.3878 122.726 34.3256 122.613 34.2013C122.513 34.0769 122.451 33.9152 122.451 33.7412Z" fill="#0897B2"></path><path d="M130.91 33.7412V26.6779C130.91 26.4914 130.973 26.3421 131.098 26.2178C131.223 26.0934 131.373 26.0312 131.561 26.0312C131.749 26.0312 131.911 26.0934 132.036 26.2178C132.162 26.3421 132.224 26.4914 132.224 26.6779V33.7412C132.224 33.9277 132.162 34.0769 132.036 34.2013C131.911 34.3256 131.749 34.3878 131.561 34.3878C131.373 34.3878 131.223 34.3256 131.098 34.2013C130.973 34.0769 130.91 33.9152 130.91 33.7412Z" fill="#0897B2"></path><path d="M137.655 33.7412V26.7028C137.655 26.5162 137.718 26.367 137.843 26.2427C137.968 26.1183 138.118 26.0561 138.306 26.0561H138.319C138.356 26.0561 138.394 26.0561 138.419 26.0686L138.506 26.0934C138.544 26.1059 138.619 26.1432 138.706 26.1929L138.769 26.2427C138.807 26.28 138.844 26.3297 138.882 26.4043L142.774 31.8137V26.6779C142.774 26.4914 142.836 26.3421 142.961 26.2178C143.087 26.0934 143.249 26.0312 143.424 26.0312C143.612 26.0312 143.775 26.0934 143.9 26.2178C144.025 26.3546 144.088 26.5038 144.088 26.6779V33.7412C144.088 33.8904 144.05 34.0147 143.95 34.1266C143.862 34.2386 143.75 34.3132 143.625 34.3505C143.612 34.3505 143.587 34.3505 143.575 34.3505C143.562 34.3505 143.55 34.3629 143.537 34.3754H143.512H143.437C143.287 34.3754 143.149 34.3256 143.036 34.2261C142.974 34.1888 142.936 34.1515 142.924 34.1266L138.969 28.6302V33.7412C138.969 33.9277 138.907 34.0769 138.782 34.2013C138.656 34.3256 138.494 34.3878 138.306 34.3878C138.118 34.3878 137.968 34.3256 137.843 34.2013C137.718 34.0769 137.655 33.9152 137.655 33.7412Z" fill="#0897B2"></path><path d="M152.711 34.4504C151.51 34.4504 150.508 34.04 149.695 33.2068C148.869 32.3861 148.444 31.3913 148.444 30.2224C148.444 29.0534 148.844 28.0586 149.658 27.2254C150.483 26.3798 151.497 25.957 152.673 25.957C153.862 25.957 154.876 26.3798 155.727 27.2254C155.865 27.3622 155.915 27.5114 155.915 27.6855C155.915 27.8472 155.852 27.984 155.727 28.1332C155.577 28.2576 155.427 28.3322 155.264 28.3322C155.076 28.3446 154.926 28.2824 154.788 28.1456C154.188 27.5736 153.487 27.2876 152.673 27.2876C151.885 27.2876 151.197 27.5736 150.609 28.1332C150.033 28.7052 149.745 29.4016 149.745 30.2224C149.745 31.0431 150.033 31.7395 150.596 32.3115C151.134 32.8835 151.822 33.1695 152.686 33.1695C153.312 33.1695 153.837 33.0327 154.263 32.7467C154.701 32.4607 154.989 32.0752 155.151 31.5654H153.775C153.587 31.5654 153.437 31.5032 153.312 31.3788C153.187 31.2545 153.124 31.0928 153.124 30.9187C153.124 30.7322 153.187 30.583 153.312 30.4586C153.437 30.3343 153.6 30.2721 153.775 30.2721L155.915 30.2845C156.102 30.2845 156.265 30.3467 156.403 30.4711C156.528 30.5954 156.603 30.7446 156.603 30.9312C156.553 31.9509 156.152 32.7965 155.402 33.4555C154.663 34.1146 153.762 34.4504 152.711 34.4504Z" fill="#0897B2"></path><path d="M4.83979 47.6211C5.8034 47.6211 6.71695 47.9942 7.44278 48.6035C7.53038 48.6905 7.5429 48.8149 7.4553 48.9019L6.79203 49.5983C6.70443 49.6854 6.60432 49.6854 6.51672 49.5983C6.05368 49.2004 5.49054 48.9765 4.90236 48.9765C3.56332 48.9765 2.51211 50.1082 2.51211 51.4387C2.51211 52.7569 3.57583 53.8761 4.91487 53.8761C5.51556 53.8761 5.9786 53.6895 6.19134 53.6149V52.7071H5.32785C5.21522 52.7071 5.12762 52.6201 5.12762 52.5206V51.6874C5.12762 51.5755 5.21522 51.4885 5.32785 51.4885H7.38021C7.49284 51.4885 7.56793 51.588 7.56793 51.6874V54.4108C7.56793 54.4978 7.53038 54.5476 7.48032 54.5849C7.48032 54.5849 6.37906 55.2813 4.82727 55.2813C2.69982 55.2813 0.985352 53.6025 0.985352 51.476C0.997866 49.3372 2.71234 47.6211 4.83979 47.6211Z" fill="#004059"></path><path d="M10.3955 47.9333C10.3955 47.8214 10.4831 47.7344 10.5957 47.7344H11.5844C11.697 47.7344 11.7846 47.8339 11.7846 47.9333V53.8899H14.5127C14.6254 53.8899 14.713 53.9893 14.713 54.0888V54.9593C14.713 55.0712 14.6254 55.1583 14.5127 55.1583H10.5957C10.4831 55.1583 10.3955 55.0588 10.3955 54.9593V47.9333Z" fill="#004059"></path><path d="M20.2823 47.6211C22.4223 47.6211 24.1368 49.3372 24.1368 51.4512C24.1368 53.5776 22.4223 55.2688 20.2823 55.2688C18.1424 55.2688 16.4404 53.5776 16.4404 51.4512C16.4404 49.3372 18.1424 47.6211 20.2823 47.6211ZM20.2823 53.8885C21.6339 53.8885 22.7477 52.7942 22.7477 51.4512C22.7477 50.1082 21.6339 49.0014 20.2823 49.0014C18.9308 49.0014 17.8295 50.1206 17.8295 51.4512C17.8295 52.7942 18.9308 53.8885 20.2823 53.8885Z" fill="#004059"></path><path d="M30.6319 51.4145C31.2576 51.6259 31.9209 52.1233 31.9209 53.1306C31.9209 54.3244 30.8947 55.1824 29.5932 55.1824H27.0027C26.8901 55.1824 26.8025 55.0829 26.8025 54.9835V47.9451C26.8025 47.8331 26.8901 47.7461 27.0027 47.7461H29.4555C30.732 47.7461 31.7081 48.5917 31.7081 49.7109C31.7081 50.5067 31.195 51.0912 30.6444 51.3648V51.4145H30.6319ZM29.3304 50.8549C29.881 50.8549 30.2314 50.4321 30.2314 49.8974C30.2314 49.3627 29.881 48.9896 29.3304 48.9896H28.1666V50.8425H29.3304V50.8549ZM29.4806 53.914C30.0187 53.914 30.4192 53.5036 30.4192 52.9441C30.4192 52.4093 30.0187 52.0238 29.4806 52.0238H28.1666V53.914H29.4806Z" fill="#004059"></path><path d="M33.6979 54.895L37.0267 47.7447C37.0643 47.6826 37.1143 47.6328 37.2144 47.6328H37.3271C37.4397 47.6328 37.4772 47.6826 37.5148 47.7447L40.8061 54.895C40.8686 55.0318 40.781 55.1686 40.6184 55.1686H39.6923C39.5296 55.1686 39.4545 55.1064 39.3794 54.9572L38.8538 53.8132H35.6627L35.1371 54.9572C35.0995 55.0691 34.9994 55.1686 34.8242 55.1686H33.8981C33.7229 55.1686 33.6353 55.0318 33.6979 54.895ZM38.3157 52.6318L37.252 50.294H37.2144L36.1632 52.6318H38.3157Z" fill="#004059"></path><path d="M43.0088 47.9333C43.0088 47.8214 43.0964 47.7344 43.209 47.7344H44.1977C44.3103 47.7344 44.3979 47.8339 44.3979 47.9333V53.8899H47.126C47.2387 53.8899 47.3263 53.9893 47.3263 54.0888V54.9593C47.3263 55.0712 47.2387 55.1583 47.126 55.1583H43.209C43.0964 55.1583 43.0088 55.0588 43.0088 54.9593V47.9333Z" fill="#004059"></path><path d="M54.5339 49.0028H52.8946C52.7819 49.0028 52.6943 48.9033 52.6943 48.8038V47.9333C52.6943 47.8214 52.7819 47.7344 52.8946 47.7344H57.5624C57.6751 47.7344 57.7627 47.8339 57.7627 47.9333V48.8038C57.7627 48.9157 57.6751 49.0028 57.5624 49.0028H55.9356V54.9593C55.9356 55.0712 55.8355 55.1583 55.7353 55.1583H54.7467C54.6341 55.1583 54.5465 55.0588 54.5465 54.9593V49.0028H54.5339Z" fill="#004059"></path><path d="M58.8767 54.895L62.2056 47.7447C62.2431 47.6826 62.2932 47.6328 62.3933 47.6328H62.5059C62.6185 47.6328 62.6561 47.6826 62.6936 47.7447L65.9849 54.895C66.0475 55.0318 65.9599 55.1686 65.7972 55.1686H64.8711C64.7084 55.1686 64.6334 55.1064 64.5583 54.9572L64.0327 53.8132H60.8415L60.3159 54.9572C60.2784 55.0691 60.1782 55.1686 60.003 55.1686H59.0645C58.9018 55.1686 58.8142 55.0318 58.8767 54.895ZM63.4945 52.6318L62.4308 50.294H62.3933L61.3421 52.6318H63.4945Z" fill="#004059"></path><path d="M68.1875 47.9333C68.1875 47.8214 68.2751 47.7344 68.3877 47.7344H69.3764C69.489 47.7344 69.5766 47.8339 69.5766 47.9333V53.8899H72.3047C72.4174 53.8899 72.505 53.9893 72.505 54.0888V54.9593C72.505 55.0712 72.4174 55.1583 72.3047 55.1583H68.3877C68.2751 55.1583 68.1875 55.0588 68.1875 54.9593V47.9333Z" fill="#004059"></path><path d="M74.8711 47.9333C74.8711 47.8214 74.9587 47.7344 75.0713 47.7344H79.4263C79.539 47.7344 79.6266 47.8339 79.6266 47.9333V48.8038C79.6266 48.9157 79.539 49.0028 79.4263 49.0028H76.2602V50.7437H78.9007C79.0134 50.7437 79.101 50.8432 79.101 50.9427V51.8256C79.101 51.9375 79.0008 52.0246 78.9007 52.0246H76.2602V53.8774H79.4263C79.539 53.8774 79.6266 53.9769 79.6266 54.0764V54.9469C79.6266 55.0588 79.539 55.1458 79.4263 55.1458H75.0713C74.9587 55.1458 74.8711 55.0463 74.8711 54.9469V47.9333Z" fill="#004059"></path><path d="M82.3164 47.8193C82.3164 47.7074 82.4165 47.6328 82.5166 47.6328H82.6793C82.7544 47.6328 82.8045 47.6577 82.867 47.7074L87.2346 52.3334H87.2596V47.9437C87.2596 47.8318 87.3472 47.7447 87.4598 47.7447H88.4485C88.5611 47.7447 88.6487 47.8442 88.6487 47.9437V55.094C88.6487 55.2059 88.5486 55.2805 88.4485 55.2805H88.2983C88.2232 55.2805 88.1731 55.2557 88.1106 55.2059L83.7305 50.4059H83.7055V54.9697C83.7055 55.0816 83.6179 55.1686 83.5053 55.1686H82.5291C82.4165 55.1686 82.3289 55.0691 82.3289 54.9697V47.8193H82.3164Z" fill="#004059"></path><path d="M92.9412 49.0028H91.3018C91.1892 49.0028 91.1016 48.9033 91.1016 48.8038V47.9333C91.1016 47.8214 91.1892 47.7344 91.3018 47.7344H95.9697C96.0823 47.7344 96.1699 47.8339 96.1699 47.9333V48.8038C96.1699 48.9157 96.0823 49.0028 95.9697 49.0028H94.3303V54.9593C94.3303 55.0712 94.2302 55.1583 94.13 55.1583H93.1414C93.0288 55.1583 92.9412 55.0588 92.9412 54.9593V49.0028Z" fill="#004059"></path><path d="M101.964 54.4488C101.851 54.3618 101.813 54.2996 101.914 54.1255L102.301 53.4664C102.389 53.3172 102.564 53.3172 102.664 53.3918C103.102 53.7276 103.578 54.0509 104.279 54.0509C104.829 54.0509 105.255 53.6903 105.255 53.2301C105.255 52.683 104.792 52.3224 103.891 51.9493C102.89 51.5514 101.876 50.9047 101.876 49.6488C101.876 48.7037 102.577 47.6094 104.279 47.6094C105.368 47.6094 106.206 48.1565 106.419 48.3182C106.531 48.3804 106.556 48.5669 106.481 48.6664L106.081 49.2757C105.993 49.4001 105.831 49.4871 105.705 49.4001C105.242 49.114 104.804 48.8156 104.216 48.8156C103.603 48.8156 103.278 49.1514 103.278 49.5617C103.278 50.0591 103.678 50.3949 104.542 50.7555C105.58 51.1659 106.782 51.7876 106.782 53.1555C106.782 54.2498 105.831 55.2571 104.329 55.2571C102.977 55.282 102.276 54.7099 101.964 54.4488Z" fill="#004059"></path><path d="M112.789 47.6211C114.929 47.6211 116.644 49.3372 116.644 51.4512C116.644 53.5776 114.929 55.2688 112.789 55.2688C110.649 55.2688 108.947 53.5776 108.947 51.4512C108.947 49.3372 110.649 47.6211 112.789 47.6211ZM112.789 53.8885C114.141 53.8885 115.255 52.7942 115.255 51.4512C115.255 50.1082 114.141 49.0014 112.789 49.0014C111.438 49.0014 110.336 50.1206 110.336 51.4512C110.336 52.7942 111.438 53.8885 112.789 53.8885Z" fill="#004059"></path><path d="M119.297 47.9333C119.297 47.8214 119.384 47.7344 119.497 47.7344H120.486C120.598 47.7344 120.686 47.8339 120.686 47.9333V53.8899H123.414C123.527 53.8899 123.614 53.9893 123.614 54.0888V54.9593C123.614 55.0712 123.527 55.1583 123.414 55.1583H119.497C119.384 55.1583 119.297 55.0588 119.297 54.9593V47.9333Z" fill="#004059"></path><path d="M125.728 47.9333C125.728 47.8214 125.828 47.7344 125.929 47.7344H126.942C127.055 47.7344 127.142 47.8339 127.142 47.9333V52.3603C127.142 53.2681 127.768 53.8899 128.694 53.8899C129.62 53.8899 130.259 53.2681 130.259 52.3728V47.9333C130.259 47.8214 130.346 47.7344 130.459 47.7344H131.472C131.585 47.7344 131.673 47.8339 131.673 47.9333V52.4349C131.673 54.0515 130.384 55.2702 128.694 55.2702C127.017 55.2702 125.716 54.0515 125.716 52.4349V47.9333H125.728Z" fill="#004059"></path><path d="M135.916 49.0028H134.276C134.164 49.0028 134.076 48.9033 134.076 48.8038V47.9333C134.076 47.8214 134.164 47.7344 134.276 47.7344H138.944C139.057 47.7344 139.145 47.8339 139.145 47.9333V48.8038C139.145 48.9157 139.057 49.0028 138.944 49.0028H137.305V54.9593C137.305 55.0712 137.205 55.1583 137.105 55.1583H136.116C136.003 55.1583 135.916 55.0588 135.916 54.9593V49.0028Z" fill="#004059"></path><path d="M141.622 47.9333C141.622 47.8214 141.722 47.7344 141.822 47.7344H142.811C142.924 47.7344 143.011 47.8339 143.011 47.9333V54.9717C143.011 55.0837 142.911 55.1707 142.811 55.1707H141.822C141.71 55.1707 141.622 55.0712 141.622 54.9717V47.9333Z" fill="#004059"></path><path d="M149.531 47.6211C151.671 47.6211 153.386 49.3372 153.386 51.4512C153.386 53.5776 151.671 55.2688 149.531 55.2688C147.391 55.2688 145.689 53.5776 145.689 51.4512C145.689 49.3372 147.391 47.6211 149.531 47.6211ZM149.531 53.8885C150.883 53.8885 151.997 52.7942 151.997 51.4512C151.997 50.1082 150.883 49.0014 149.531 49.0014C148.18 49.0014 147.079 50.1206 147.079 51.4512C147.079 52.7942 148.18 53.8885 149.531 53.8885Z" fill="#004059"></path><path d="M156.039 47.8193C156.039 47.7074 156.139 47.6328 156.239 47.6328H156.402C156.477 47.6328 156.527 47.6577 156.59 47.7074L160.957 52.3334H160.982V47.9437C160.982 47.8318 161.07 47.7447 161.182 47.7447H162.171C162.284 47.7447 162.371 47.8442 162.371 47.9437V55.094C162.371 55.2059 162.271 55.2805 162.171 55.2805H162.021C161.946 55.2805 161.896 55.2557 161.833 55.2059L157.453 50.4059H157.428V54.9697C157.428 55.0816 157.341 55.1686 157.228 55.1686H156.252C156.139 55.1686 156.052 55.0691 156.052 54.9697V47.8193H156.039Z" fill="#004059"></path><path d="M165.149 54.4488C165.037 54.3618 164.999 54.2996 165.099 54.1255L165.487 53.4664C165.575 53.3172 165.75 53.3172 165.85 53.3918C166.288 53.7276 166.763 54.0509 167.464 54.0509C168.015 54.0509 168.44 53.6903 168.44 53.2301C168.44 52.683 167.977 52.3224 167.076 51.9493C166.075 51.5514 165.062 50.9047 165.062 49.6488C165.062 48.7037 165.762 47.6094 167.464 47.6094C168.553 47.6094 169.392 48.1565 169.604 48.3182C169.717 48.3804 169.742 48.5669 169.667 48.6664L169.266 49.2757C169.179 49.4001 169.016 49.4871 168.891 49.4001C168.428 49.114 167.99 48.8156 167.402 48.8156C166.789 48.8156 166.463 49.1514 166.463 49.5617C166.463 50.0591 166.864 50.3949 167.727 50.7555C168.766 51.1659 169.967 51.7876 169.967 53.1555C169.967 54.2498 169.016 55.2571 167.514 55.2571C166.15 55.282 165.449 54.7099 165.149 54.4488Z" fill="#004059"></path><path d="M1.87402 41.9609H169.955" stroke="white" stroke-width="0.198374" stroke-miterlimit="10"></path></svg>