<svg width="160" height="23" viewBox="0 0 160 23" fill="none" xmlns="http://www.w3.org/2000/svg">
<path d="M24.7742 0V4.7823H32.0174V22.7275H37.1438V4.7823H44.3871V0H24.7742Z" fill="white"/>
<path d="M101.731 17.8715C100.943 17.8715 100.064 17.4727 100.064 15.5248C100.064 13.5769 100.936 13.2325 101.731 13.2325H111.512V17.8705L101.731 17.8715ZM109.263 0H96.1976V4.82407H108.916C110.783 4.82407 111.511 5.668 111.511 7.8472C111.511 7.85748 111.511 8.46395 111.511 8.65001H100.97C96.9617 8.65001 94.9678 10.6462 94.9678 15.1558V16.2299C94.9678 20.8721 97.033 22.7275 101.188 22.7275H116.645V7.78552C116.645 2.05894 114.744 0 109.263 0Z" fill="white"/>
<path d="M145.086 17.8715C144.302 17.8715 143.419 17.4727 143.419 15.5248C143.419 13.5769 144.292 13.2325 145.086 13.2325H154.875V17.8705L145.086 17.8715ZM152.617 0H139.551V4.82407H152.278C154.137 4.82407 154.873 5.668 154.873 7.8472V8.65001H144.329C140.319 8.65001 138.323 10.6462 138.323 15.1558V16.2299C138.323 20.8721 140.393 22.7275 144.544 22.7275H160V7.78552C160 2.05894 158.11 0 152.614 0" fill="white"/>
<path d="M45.4193 0V4.7823H52.6601V22.7275H57.7914V4.7823H65.0322V0H45.4193Z" fill="white"/>
<path d="M117.677 0V4.7823H124.921V22.7275H130.047V4.7823H137.29V0H117.677Z" fill="white"/>
<path d="M88.5824 14.8707C88.5824 17.0541 87.8382 17.895 85.9533 17.895H77.4995V4.8397H85.9533C87.8393 4.8397 88.5824 5.68572 88.5824 7.86708V14.8707ZM93.9355 14.7679V7.96782C93.9355 2.00557 91.5882 0 86.3009 0H72.2581V22.7275H86.5441C92.1643 22.7275 93.9355 19.9828 93.9355 14.7679Z" fill="white"/>
<path d="M17.1043 17.173C16.993 16.972 10.0021 3.82918 9.14651 2.53529C8.72402 1.74708 8.07853 1.09073 7.28495 0.642449C6.49137 0.194164 5.5823 -0.0276585 4.66331 0.00275623C2.52944 0.00275623 0 0.913906 0 5.86144V22.4701H5.15671V8.61799C5.15671 7.62446 5.09113 6.15176 5.08072 5.85642C5.06927 5.60929 5.08071 5.37723 5.20874 5.30591C5.35655 5.22353 5.50542 5.36116 5.60639 5.54499C5.70736 5.72883 12.186 18.0952 13.5611 20.1857C13.9846 20.9736 14.6301 21.6299 15.4233 22.0792C16.2165 22.5285 17.125 22.7525 18.0443 22.7252C20.1781 22.7252 22.7097 21.803 22.7097 16.8575V0.24386H17.5499V14.099C17.5499 15.0935 17.6154 16.5722 17.6279 16.8645C17.6404 17.1117 17.6279 17.3357 17.4988 17.4151C17.3531 17.4944 17.2032 17.3558 17.1043 17.173Z" fill="white"/>
</svg>
