<?xml version="1.0" encoding="utf-8"?>
<svg viewBox="24.838 24.838 310.032 310.032" width="310.032" height="310.032" style="enable-background:new 0 0 360 360;" xmlns="http://www.w3.org/2000/svg">
  <defs>
    <style type="text/css">
	.st0{fill:none;}
	.st1{fill-rule:evenodd;clip-rule:evenodd;fill:#FFFFFF;}
	.st2{fill-rule:evenodd;clip-rule:evenodd;fill:#002A5C;}
	.st3{fill:#FFFFFF;}
	.st4{fill:#CE0E2D;}
</style>
  </defs>
  <g>
    <g>
      <path class="st1" d="M 334.55 180.02 C 334.55 265.36 265.36 334.55 180.02 334.55 C 94.68 334.55 25.49 265.37 25.49 180.02 C 25.49 94.68 94.68 25.49 180.02 25.49 C 265.37 25.49 334.55 94.67 334.55 180.02"/>
      <path class="st2" d="M 330.86 180.02 C 330.86 263.32 263.33 330.85 180.03 330.85 C 96.73 330.85 29.2 263.32 29.2 180.02 C 29.2 96.72 96.73 29.19 180.03 29.19 C 263.33 29.18 330.86 96.71 330.86 180.02"/>
      <path class="st1" d="M 286.86 180.02 C 286.86 239.03 239.03 286.86 180.02 286.86 C 121.01 286.86 73.18 239.03 73.18 180.02 C 73.18 121.01 121.01 73.18 180.02 73.18 C 239.03 73.18 286.86 121.01 286.86 180.02"/>
    </g>
    <g>
      <path class="st3" d="M50.95,137.54l-0.14,1.12c-2.56-0.15-4.92,0.36-5.69,3.14c-0.67,2.42,0.35,4.56,2.83,5.25 c6.24,1.73,7.73-9.6,14.33-7.77c4.11,1.14,6.27,4.66,4.94,9.46c-0.62,2.22-1.93,4.92-3.56,6.22l-5.52-1.14l0.04-1.15 c1.8,0.22,3.32,0.22,4.36,0.01c1.57-0.34,3-2.69,3.39-4.09c0.75-2.71-0.02-5.14-2.89-5.94c-5.58-1.55-6.81,9.86-15.11,7.56 c-3.46-0.96-5.48-4.47-4.21-9.05c0.44-1.6,1.44-3.05,2.04-4.57L50.95,137.54z"/>
      <path class="st3" d="M71.59,109.82c6.02,3.11,8.01,9.52,4.64,16.02c-3.97,7.67-10.52,8.97-16.57,5.85 c-6.86-3.55-9.14-9.84-5.73-16.43C57.91,107.59,64.7,106.26,71.59,109.82z M75.16,125.1c2.9-5.6-0.68-9.74-5.56-12.26 c-6.29-3.25-12.33-1.23-14.59,3.13c-2.34,4.51-0.56,8.98,4.91,11.81C66.58,131.23,72.45,130.34,75.16,125.1z"/>
      <path class="st3" d="M85.78,83.49L85,84.38c-2.55-1.76-5.75-2.2-9.99,2.69c-3.97,4.58-4.27,9.17,0.5,13.29 c5.28,4.57,12.4,4.83,16.53,0.06c2.33-2.69,3.01-5.86,1.83-9.26l1.07-0.2l1.84,4.86c-1.11,2.26-2.43,4.26-3.87,5.92 c-5.03,5.81-11.63,7.99-18.41,2.11c-5.76-4.99-6.15-11.42-0.52-17.93c1.6-1.84,4.64-4.58,6.96-6.17L85.78,83.49z"/>
      <path class="st3" d="M92.58,71.26l12.86,15.57l2.93-1.67l0.73,0.89l-7.68,6.34l-0.73-0.89l2.19-2.56L90.02,73.37l-2.93,1.67 l-0.73-0.89l7.68-6.34l0.73,0.89L92.58,71.26z"/>
      <path class="st3" d="M112.65,72.92l1.35,7.36l3.16-1.16l0.58,1l-7.34,4.23l-0.58-1l2.21-1.94l-3.54-23.85l1.5-0.86l19.27,14.78 l2.78-0.94l0.58,1l-8.48,4.89l-0.58-1l2.59-2.16l-6.04-4.65L112.65,72.92z M112.39,71.11l6.25-3.6l-7.81-6.02L112.39,71.11z"/>
      <path class="st3" d="M134.66,69.82l2.98-1.58l-6.26-19.2l-3.34,0.48l-0.36-1.1l9.47-3.09l0.36,1.1l-2.98,1.58l6.15,18.88 l8.18-2.67l0.45-4.96l1.1-0.36l0.61,6.79l-16.01,5.22L134.66,69.82z"/>
      <path class="st3" d="M181.32,44.07l-1.11,0.21c-0.63-2.49-1.82-4.58-4.7-4.48c-2.51,0.09-4.24,1.71-4.15,4.28 c0.23,6.47,11.48,4.47,11.72,11.31c0.15,4.27-2.55,7.38-7.53,7.56c-2.3,0.08-5.27-0.36-7-1.51l-0.57-5.61l1.11-0.31 c0.34,1.78,0.79,3.23,1.3,4.16c0.79,1.4,3.46,2.05,4.92,2c2.81-0.1,4.89-1.56,4.79-4.54c-0.21-5.79-11.45-3.53-11.75-12.13 c-0.13-3.59,2.62-6.57,7.36-6.74c1.66-0.06,3.34,0.46,4.97,0.57L181.32,44.07z"/>
      <path class="st3" d="M195.59,50.24l6.17,0.86l0.99-2.43l1.01,0.14c-0.45,1.78-0.89,4.94-0.94,6.78l-1.01-0.14l-0.24-2.67 l-6.21-0.86l-1.28,9.16l9.3,1.3l1.85-3.47l1.21,0.17l-2.17,5.51l-17.05-2.38l0.16-1.14l3.37-0.11l2.79-20l-3.21-1.03l0.16-1.14 l15.47,2.16l-0.25,5.23l-1.04-0.14l-0.45-3.42l-7.42-1.03L195.59,50.24z"/>
      <path class="st3" d="M236.05,57.22l-1.12-0.4c0.73-3.02-0.01-6.16-6.1-8.36c-5.7-2.06-10.09-0.68-12.22,5.25 c-2.37,6.57-0.04,13.31,5.89,15.45c3.35,1.2,6.55,0.7,9.3-1.62l0.57,0.92l-3.88,3.47c-2.51-0.22-4.85-0.74-6.92-1.48 c-7.24-2.61-11.64-7.97-8.6-16.42c2.58-7.17,8.45-9.85,16.54-6.93c2.3,0.83,5.95,2.68,8.26,4.27L236.05,57.22z"/>
      <path class="st3" d="M265.21,69l-6.25,9.48c-3.64,5.52-8.42,7.85-14.79,3.65c-5.94-3.92-6.48-8.78-3.52-13.08l7.46-11.32 l-2.46-2.31l0.63-0.96l8.32,5.48l-0.63,0.96l-3.09-1.35l-6.77,10.27c-2.87,4.16-3.02,8.03,1.31,10.89 c1.41,0.93,4.03,1.89,6.49,1.11c1.98-0.6,3.62-3.09,4.63-4.62l6.4-9.71l-2.46-2.31l0.63-0.96l7.81,5.15l-0.63,0.96L265.21,69z"/>
      <path class="st3" d="M261.31,92.32l14.63-13.92l-1.99-2.93l0.83-0.79l7.66,8.05c2.33,2.46,3.3,5.98,0.38,8.76 c-2.11,2.01-5.23,2.31-8,1.72l-1.21,7.18c-0.34,2.05-0.88,4.68-0.05,6.83l-0.97,0.46l-1.31-2.31c-0.39-0.71-1.06-1.85-1.02-2.16 c0.44-3.97,1.11-7.98,1.92-11.7c-0.82-0.72-1.69-1.58-2.57-2.51l-6.02,5.72l1.87,2.8l-0.84,0.79l-6.98-7.34l0.84-0.79 L261.31,92.32z M270.72,87.95c0.23,0.29,0.61,0.69,0.96,1.05c2.87,3.02,4.4,4.33,7.84,1.06c2.75-2.62,2.97-5.49,0.33-8.26 c-0.47-0.49-0.94-0.89-1.41-1.19L270.72,87.95z"/>
      <path class="st3" d="M296,102.43l-16.66,11.42l1.4,3.07l-0.95,0.65l-5.64-8.22l0.95-0.65l2.35,2.41l16.66-11.43l-1.4-3.07 l0.95-0.65l5.64,8.22l-0.95,0.65L296,102.43z"/>
      <path class="st3" d="M287.22,127.6l18.11-8.54l-1.79-3.8c-0.5-1.07-1.06-2.09-1.55-2.98l-3.92,0.5l-0.51-1.07l5.55-1.83 l9.46,20.08l-5.11,2.75l-0.53-1.13l3.06-2.34c-0.4-1.01-0.86-2.14-1.39-3.28l-1.83-3.89l-18.12,8.54l1.08,3.65l-1.04,0.49 l-4.62-9.81l1.04-0.49L287.22,127.6z"/>
      <path class="st3" d="M295.38,149.65l7.98-2.01l9.82-9.98l-0.25-3.36l1.12-0.28l2.52,10.02l-1.12,0.28l-1.37-3.08l-8.01,8.31 l10.81,2.83l-0.25-3.36l1.12-0.28l2.05,8.15l-1.12,0.28l-1.22-2.49l-13.36-3.8l-7.92,1.99l0.41,3.98l-1.12,0.28l-2.75-10.91 l1.12-0.28L295.38,149.65z"/>
    </g>
    <g>
      <path class="st3" d="M51.1,212.24l-7.39-0.44l0.37,3.32l-1.1,0.32l-2.34-8.05l1.1-0.32l1.34,2.58l23.77,2.22l0.48,1.64 l-18.76,15.05l0.25,2.9l-1.1,0.32l-2.7-9.31l1.1-0.32l1.47,3l5.9-4.72L51.1,212.24z M52.9,212.41l1.99,6.86l7.63-6.09 L52.9,212.41z"/>
      <path class="st3" d="M51.09,237.01l2.11,2.59l17.44-9.79l-1.11-3.15l0.99-0.56l6.11,10.88c3.45,6.14,4.26,12.8-3.08,16.93 c-7.75,4.35-13.83,0.8-17.56-5.84l-5.9-10.5L51.09,237.01z M55.01,242.35c0.74,2.01,1.35,3.63,2.4,5.5 c2.83,5.03,7.7,6.72,13.29,3.58c6.76-3.79,7.38-9.26,3.98-15.32c-0.69-1.23-1.39-2.41-2.2-3.57L55.01,242.35z"/>
      <path class="st3" d="M101.53,271.09l-12.99,15.34l1.76,2.64l-0.82,0.79l-6.73-6.98l0.82-0.79l2.69,1.97l12.28-14.33l-0.05-0.05 l-0.05,0.05l-20.45,7.99l-0.28-0.29l8.37-19.93l-0.05-0.05l-0.05,0.05l-14.32,11.45l1.76,2.64l-0.82,0.79l-5.5-5.7l0.82-0.79 l2.39,1.66l15.79-12.44l-2.06-2.96l0.82-0.79l5.08,5.26l-7.23,17.29l17.42-6.74l4.99,5.17l-0.82,0.79L101.53,271.09z"/>
      <path class="st3" d="M112.54,278.95l-11.5,16.36l2.36,2.36l-0.66,0.93l-8.07-5.67l0.66-0.93l3.02,1.42l11.5-16.36l-2.36-2.36 l0.65-0.93l8.07,5.67l-0.66,0.93L112.54,278.95z"/>
      <path class="st3" d="M111.49,302.27l8.45-18.12l-2.74-1.91l0.48-1.03l5.56,2.59l7.22,23.5l6.99-14.99l-2.74-1.91l0.48-1.03 l7.72,3.6l-0.48,1.03l-3.22-0.87l-9.26,19.86l-1.52-0.71c-0.97-3.23-6.11-19.91-7.76-25.12l-7.43,15.93l2.86,1.96l-0.48,1.03 l-7.85-3.66l0.48-1.03L111.49,302.27z"/>
      <path class="st3" d="M150.82,296.18l-5.12,19.33l3.03,1.39l-0.29,1.1l-9.54-2.53l0.29-1.1l3.32,0.29l5.12-19.33l-3.03-1.39 l0.29-1.1l9.54,2.53l-0.29,1.1L150.82,296.18z"/>
      <path class="st3" d="M170.41,303.26l-1.12,0.03c-0.22-2.53-1.05-4.76-3.88-5.12c-2.46-0.31-4.42,1-4.74,3.52 c-0.81,6.35,10.51,6.2,9.65,12.92c-0.53,4.19-3.67,6.8-8.56,6.19c-2.26-0.29-5.09-1.19-6.6-2.59l0.33-5.57l1.13-0.13 c0.04,1.8,0.26,3.28,0.61,4.27c0.56,1.49,3.06,2.55,4.49,2.73c2.76,0.35,5.03-0.75,5.4-3.68c0.72-5.69-10.62-5.27-9.55-13.72 c0.45-3.53,3.6-6,8.26-5.41c1.63,0.21,3.19,0.98,4.76,1.35L170.41,303.26z"/>
      <path class="st3" d="M186.24,319.62l-1.1-19.79l-4.15,0.23c-1.17,0.07-2.31,0.2-3.31,0.32l-1,3.78l-1.17,0.07l0.39-5.77 l21.94-1.22l0.62,5.71l-1.24,0.07l-1.01-3.67c-1.07-0.01-2.28-0.01-3.52,0.06l-4.25,0.24l1.1,19.79l3.75,0.36l0.06,1.14 l-10.72,0.6l-0.06-1.14L186.24,319.62z"/>
      <path class="st3" d="M209.07,316.92l-5.17-19.32l-3.49,0.34l-0.29-1.1l10.63-2.84c3.24-0.87,6.76-0.04,7.79,3.82 c0.75,2.79-0.47,5.65-2.3,7.77l5.67,4.46c1.62,1.27,3.65,2.98,5.91,3.28l-0.06,1.06l-2.63,0.04c-0.8,0.01-2.11,0.04-2.36-0.13 c-3.24-2.26-6.41-4.75-9.26-7.21c-1.01,0.37-2.17,0.72-3.4,1.05l2.12,7.94l3.32-0.3l0.29,1.1l-9.69,2.59l-0.29-1.1 L209.07,316.92z M209.73,306.67c0.37-0.06,0.88-0.2,1.37-0.33c3.99-1.07,5.85-1.77,4.63-6.31c-0.97-3.63-3.36-5.18-7.03-4.2 c-0.65,0.17-1.21,0.39-1.7,0.66L209.73,306.67z"/>
      <path class="st3" d="M236.22,300.44l0.99,7.34l3.18-1l0.52,1.01l-7.46,3.84l-0.52-1.01l2.27-1.81l-2.38-23.75l1.52-0.78 l18.36,15.52l2.8-0.8l0.52,1.01l-8.62,4.44l-0.52-1.01l2.66-2.01l-5.76-4.88L236.22,300.44z M236.05,298.64l6.35-3.27 l-7.44-6.32L236.05,298.64z"/>
      <path class="st3" d="M264.79,291.12l-12.23-15.61l-3.28,2.56c-0.92,0.72-1.78,1.48-2.53,2.15l1.34,3.68l-0.92,0.72l-2.98-4.95 l17.3-13.55l3.77,4.33l-0.98,0.77l-2.93-2.44c-0.89,0.61-1.88,1.3-2.86,2.07l-3.35,2.63l12.23,15.61l3.28-1.85l0.7,0.9 l-8.45,6.62l-0.7-0.9L264.79,291.12z"/>
      <path class="st3" d="M268.48,260.75l14.58,13.67l2.66-2.01l0.83,0.78l-6.74,7.19l-0.83-0.78l1.83-2.79l-14.58-13.67l-2.66,2.01 l-0.83-0.78l6.75-7.19l0.83,0.78L268.48,260.75z"/>
      <path class="st3" d="M295.77,241.76c5.59,3.71,6.86,10.23,2.86,16.26c-4.73,7.13-11.31,7.71-16.93,3.99 c-6.38-4.23-7.95-10.66-3.89-16.78C282.54,238.1,289.37,237.51,295.77,241.76z M297.67,257.18c3.45-5.2,0.37-9.66-4.16-12.66 c-5.84-3.87-12.01-2.53-14.7,1.53c-2.78,4.19-1.51,8.78,3.58,12.15C288.56,262.29,294.44,262.04,297.67,257.18z"/>
      <path class="st3" d="M308.19,236.76l-18.84-6.7l-1.64,2.91l-1.07-0.38l2.06-5.78l22.71-9.41l-15.58-5.54l-1.64,2.91l-1.07-0.38 l2.85-8.03l1.07,0.38l-0.56,3.29l20.64,7.34l-0.56,1.58c-3.12,1.28-19.25,7.97-24.27,10.1l16.56,5.89l1.68-3.03l1.07,0.38 l-2.9,8.15l-1.07-0.38L308.19,236.76z"/>
    </g>
    <g>
      <path class="st2" d="M 75.96 181.96 C 75.96 181.96 78.87 183.62 83.02 181.54 C 88.01 179.05 90.09 177.39 95.49 166.17 C 100.89 154.11 106.71 139.56 115.85 131.26 C 124.99 122.95 135.38 116.72 150.34 120.45 C 150.34 120.45 150.34 121.7 144.11 122.11 C 141.2 122.53 132.05 124.6 122.91 132.09 C 112.94 141.23 106.71 157.02 102.96 164.08 C 100.47 169.49 93.4 186.11 83.43 186.11 C 79.7 186.54 75.96 181.96 75.96 181.96"/>
      <path class="st2" d="M 113.78 155.37 C 123.76 132.93 134.97 130.43 134.97 130.43 C 134.97 130.43 134.97 135.42 135.39 136.66 C 135.39 136.66 126.66 138.74 117.52 163.26 C 114.19 171.99 107.54 186.12 95.91 186.12 C 95.91 186.12 102.56 181.14 113.78 155.37"/>
      <path class="st2" d="M 120.01 171.99 C 120.01 171.99 121.67 168.66 125.83 159.52 C 134.14 140.4 143.7 137.91 146.2 137.91 C 149.11 137.49 150.35 139.16 150.35 139.16 C 150.35 139.16 138.3 142.48 129.99 167.83 C 129.99 167.83 123.34 169.91 120.01 171.99"/>
      <path class="st2" d="M 137.05 165.76 C 137.05 165.76 142.45 149.13 154.09 142.49 L 157.41 146.23 C 157.41 146.23 147.85 153.72 144.11 164.52 C 144.12 164.51 139.55 164.92 137.05 165.76"/>
      <path class="st2" d="M 158.25 164.93 C 159.08 160.78 164.48 155.37 164.48 155.37 L 161.15 151.22 C 161.15 151.22 154.92 155.79 151.59 164.52 C 151.59 164.52 154.08 164.52 155.33 164.94 L 158.25 164.94 Z"/>
      <path class="st2" d="M 184.01 149.13 C 184.01 149.13 189.42 148.71 191.08 146.64 C 191.08 146.64 203.96 152.46 208.12 162.85 C 208.12 162.85 202.72 162.85 199.81 163.26 C 199.81 163.26 196.07 156.2 184.01 149.13"/>
      <path class="st2" d="M 222.66 164.51 C 222.66 164.51 217.26 162.85 214.35 163.26 C 214.35 163.26 214.35 151.63 195.65 142.9 C 195.65 142.9 198.56 139.16 199.39 137.5 C 199.39 137.5 220.17 144.15 222.66 164.51"/>
      <path class="st2" d="M 241.78 172.82 C 241.78 172.82 237.62 169.49 231.8 166.59 C 231.8 166.59 226.4 135.84 201.05 134.59 C 201.05 134.59 202.72 131.26 203.96 129.19 C 204.38 128.77 205.21 128.36 205.62 127.94 C 205.62 127.94 220.58 124.2 233.46 132.93 C 238.86 137.08 245.93 148.31 251.33 162.44 C 255.9 174.07 261.72 183.22 263.38 185.3 C 263.38 185.3 257.15 184.47 253.82 181.15 C 248.83 176.16 240.94 151.64 235.95 144.58 C 230.96 137.51 226.39 131.7 211.85 132.53 C 211.85 132.53 222.24 135.44 228.47 143.75 C 235.96 153.71 241.78 172.82 241.78 172.82"/>
      <path class="st2" d="M 196.9 121.7 C 193.57 130.01 191.08 135.42 184.43 135.42 C 172.38 134.59 170.72 127.52 170.3 126.69 C 170.3 125.03 172.79 123.78 172.79 123.78 C 171.96 123.78 166.97 123.78 160.32 122.12 C 151.18 119.21 151.18 125.45 151.18 125.45 C 151.18 125.45 139.96 122.54 138.71 128.36 C 137.88 130.85 138.29 135.01 138.29 135.01 C 138.29 135.01 146.6 130.43 152.84 135.84 C 158.24 140 159.07 143.74 166.97 152.46 C 170.71 157.03 180.69 171.58 193.57 165.34 C 193.57 165.34 191.91 162.01 183.18 156.2 C 179.44 153.71 174.04 151.21 170.3 148.3 C 166.98 145.8 165.73 144.56 159.08 137.08 C 156.17 133.76 147.44 129.19 142.46 130.85 C 142.05 131.27 142.05 131.68 141.63 131.68 C 141.63 131.68 141.63 129.6 142.05 128.77 C 142.46 127.52 147.45 127.11 153.27 128.77 C 153.27 128.77 152.44 124.19 157.01 125.03 C 161.58 125.86 166.57 127.52 167.81 127.11 C 167.81 127.11 167.81 137.91 185.27 139.16 C 194 139.57 197.32 130.43 199.4 126.69 C 200.23 125.86 201.48 123.78 203.14 123.37 C 214.36 120.46 234.72 120.46 247.61 141.65 C 252.6 150.79 260.91 169.08 264.23 174.9 C 272.54 189.44 279.19 186.95 284.59 181.96 C 284.59 181.96 276.28 186.53 269.21 169.91 C 265.89 162.43 254.66 137.91 246.35 130.43 C 242.19 126.69 235.96 120.88 225.15 118.38 C 203.13 113.81 196.9 121.7 196.9 121.7"/>
      <path class="st2" d="M 155.34 126.69 C 155.34 126.69 156.59 128.35 156.59 129.6 C 156.59 129.6 158.25 128.35 162 128.35 C 161.99 128.35 157 127.11 155.34 126.69"/>
      <path class="st2" d="M 142.52 199.8 L 149.6 199.8 L 149.6 248.59 C 149.6 248.59 143.31 249.38 142.52 240.73 L 142.52 199.8 Z"/>
      <path class="st2" d="M 218.82 199.8 L 211.74 199.8 L 211.74 248.59 C 211.74 248.59 218.42 249.38 218.82 240.73 L 218.82 199.8 Z"/>
      <path class="st2" d="M 154.71 199.8 L 161.4 199.8 L 161.4 252.52 C 161.4 252.52 159.43 252.13 154.32 250.95 L 154.71 199.8 Z"/>
      <path class="st2" d="M 165.72 199.8 L 172.4 199.8 L 172.4 255.27 C 172.4 255.27 170.43 254.88 165.72 253.7 L 165.72 199.8 Z"/>
      <path class="st2" d="M 206.62 199.8 L 199.93 199.8 L 199.93 252.52 C 199.93 252.52 201.9 251.74 207.01 250.95 L 206.62 199.8 Z"/>
      <path class="st2" d="M 195.22 199.8 L 188.53 199.8 L 188.53 255.27 C 188.53 255.27 190.5 254.88 195.22 253.7 L 195.22 199.8 Z"/>
      <polygon class="st2" points="176.73 199.8 183.81 199.8 183.81 255.27 180.67 259.21 176.73 255.67"/>
    </g>
    <g>
      <path class="st4" d="M166.12,172.82v12.39c0,5.93-1.57,11-10.79,11c-7.36-0.07-10.75-3.54-10.75-9.07v-14.32l-3.57-0.71v-1.36 h12.5v1.36l-3.72,0.71v14.22c0,4.43,2.29,7.11,6.82,7.11c6.36,0,7.29-4.32,7.29-9.04v-12.29l-3.89-0.71v-1.36h9.32v1.36 L166.12,172.82z"/>
      <path class="st4" d="M186.55,177.82h-1.29c-0.25-3.11-1.54-6.04-5.11-6.04c-2.25,0-4,1.21-4,3.61c0,6.29,11.82,3.82,11.82,13 c0,4.54-3.82,7.82-8.54,7.82c-2.46,0-5.04-0.68-7.18-1.93c0-2.07-0.03-4.18-0.29-6.21h1.47c0.39,3.14,1.89,6.57,5.79,6.57 c2.79,0,4.46-1.61,4.46-4.32c0-5.29-11.43-4.43-11.43-12.39c0-5.14,3.29-7.72,8.25-7.72c2.07,0,4.18,0.64,6.04,1.57V177.82z"/>
      <path class="st4" d="M191.44,195.68v-1.36l2.86-0.71l8.64-23.4h3.11l9.04,23.4l2.86,0.71v1.36h-12.11v-1.36l3.32-0.71 l-2.36-6.54h-7.86l-2.22,6.54l3.32,0.71v1.36H191.44z M199.59,185.11h6.43l-3.36-8.64L199.59,185.11z"/>
    </g>
  </g>
</svg>