<?xml version="1.0" encoding="UTF-8"?><svg id="Layer_2" xmlns="http://www.w3.org/2000/svg" viewBox="0 0 294.99 63.6"><defs><style>.cls-1{fill:#00aeef;}.cls-2{fill:#fff;}</style></defs><g id="Layer_1-2"><path class="cls-2" d="m113.84,1.5v18.98c-1.65-.12-3.18-.12-4.71-.12-11.67.12-15.68,7.07-15.33,18.4v22.75h-22.4v-28.58c0-18.26,13.68-31.43,42.44-31.43"/><rect class="cls-2" x="122.48" y="2.32" width="22.41" height="59.18"/><path class="cls-1" d="m156.32,31.8c0,17.53,14.26,31.8,31.8,31.8s31.8-14.26,31.8-31.8S205.66,0,188.12,0s-31.8,14.27-31.8,31.8m19.65,0c0-6.7,5.45-12.15,12.15-12.15s12.15,5.45,12.15,12.15-5.45,12.15-12.15,12.15-12.15-5.45-12.15-12.15"/><path class="cls-2" d="m254.35,20.4v41.1h-22.43V1.5h20.63c28.77.88,42.44,13.18,42.44,31.44v28.58h-22.4v-22.75c.35-11.32-3.65-18.23-15.33-18.35h-2.91"/><path class="cls-2" d="m0,31.8c0,17.53,14.27,31.8,31.8,31.8s31.8-14.26,31.8-31.8S49.34,0,31.8,0,0,14.26,0,31.8m19.65,0c0-6.7,5.45-12.15,12.15-12.15s12.15,5.45,12.15,12.15-5.45,12.15-12.15,12.15-12.15-5.45-12.15-12.15"/></g></svg>