<?xml version="1.0" encoding="UTF-8"?>
<svg xmlns="http://www.w3.org/2000/svg" width="190" height="40" viewBox="0 0 190 40" fill="none">
  <path fill-rule="evenodd" clip-rule="evenodd" d="M67.232 30.4387V12.0298L61.0957 11.9328L61.2901 10.491H76.0757L75.8812 11.8742L69.9394 12.0298V30.4387H67.232" fill="#388DA9"></path>
  <path fill-rule="evenodd" clip-rule="evenodd" d="M82.407 20.6401C83.6274 20.6401 84.6179 20.5686 85.3779 20.426C86.1374 20.2829 86.7184 20.0817 87.1207 19.822C87.3027 19.7053 87.4717 19.5493 87.6277 19.3544C87.7833 19.1594 87.9163 18.9098 88.0267 18.6044C88.1371 18.2996 88.2216 17.9294 88.2802 17.4944C88.3388 17.059 88.3676 16.5366 88.3676 15.9259C88.3676 15.1596 88.2571 14.5072 88.0368 13.968C87.8154 13.4293 87.4976 12.9914 87.0818 12.6534C86.6665 12.3154 86.1634 12.0687 85.5724 11.9131C84.9813 11.7571 84.3092 11.6793 83.5564 11.6793C83.1795 11.6793 82.8549 11.6889 82.5822 11.7086C82.3095 11.7278 81.9715 11.7571 81.5692 11.796V20.6401H82.407ZM84.3745 22.0233H81.5692V30.4387H78.8613V10.5299C79.6794 10.4651 80.5821 10.4133 81.5692 10.3744C82.5558 10.335 83.5237 10.3153 84.4719 10.3153C85.6276 10.3153 86.6339 10.4392 87.4909 10.6855C88.3483 10.9327 89.056 11.2899 89.6144 11.7571C90.1728 12.2252 90.5886 12.796 90.8613 13.4716C91.134 14.1466 91.2703 14.9129 91.2703 15.7703C91.2703 16.6014 91.1565 17.3379 90.9294 17.9813C90.7019 18.6241 90.4003 19.1859 90.0235 19.666C89.6466 20.1466 89.202 20.5561 88.6892 20.8936C88.176 21.2311 87.6402 21.5106 87.0818 21.7309C87.6791 22.7574 88.2538 23.7344 88.8059 24.663C89.358 25.5915 89.913 26.4096 90.4714 27.1173C91.0298 27.8255 91.5949 28.3867 92.1662 28.802C92.7375 29.2183 93.3478 29.4257 93.9978 29.4257H94.1923V30.3024C93.9066 30.4066 93.5427 30.4901 93.1015 30.5554C92.6598 30.6202 92.2118 30.6529 91.7571 30.6529C91.1076 30.6529 90.5559 30.565 90.1012 30.3898C89.6466 30.2145 89.202 29.8832 88.767 29.3964C88.3315 28.9096 87.8615 28.2374 87.355 27.3799C86.8485 26.5229 86.2248 25.4124 85.485 24.0489L84.3745 22.0233V22.0233Z" fill="#388DA9"></path>
  <path fill-rule="evenodd" clip-rule="evenodd" d="M105.627 21.8284L102.315 12.5166L98.8479 21.8284H105.627ZM108.53 30.4388L106.036 23.1339L98.3611 23.2309L95.6724 30.4388H93.6857L101.595 10.6663L103.932 9.98456L111.335 30.4388H108.53V30.4388Z" fill="#388DA9"></path>
  <path fill-rule="evenodd" clip-rule="evenodd" d="M129.704 30.5362L115.62 14.9911H115.562C115.588 16.4588 115.614 17.7959 115.64 19.0039C115.653 19.5234 115.662 20.0395 115.669 20.5523C115.676 21.066 115.682 21.5365 115.689 21.9648C115.695 22.3935 115.701 22.7637 115.708 23.0753C115.715 23.3868 115.718 23.601 115.718 23.7181V30.4387H113.926V10.3547H115.114L129.217 25.8609H129.238C129.211 24.4973 129.191 23.2308 129.179 22.0622C129.179 21.5687 129.176 21.0689 129.169 20.5623C129.162 20.0558 129.156 19.5786 129.149 19.1306C129.143 18.6822 129.14 18.2833 129.14 17.9323C129.14 17.5818 129.14 17.3091 129.14 17.1142V10.5107H130.932V30.5362H129.704" fill="#388DA9"></path>
  <path fill-rule="evenodd" clip-rule="evenodd" d="M139.854 30.4387V12.0298L133.718 11.9328L133.912 10.491H148.698L148.503 11.8742L142.562 12.0298V30.4387H139.854" fill="#388DA9"></path>
  <path fill-rule="evenodd" clip-rule="evenodd" d="M166.97 20.3871C166.97 19.1143 166.84 17.9519 166.581 16.9C166.32 15.8481 165.915 14.9455 165.363 14.1922C164.811 13.4394 164.109 12.8551 163.259 12.4388C162.409 12.0235 161.392 11.8156 160.211 11.8156C159.185 11.8156 158.23 11.9261 157.347 12.1464C156.464 12.3678 155.763 12.699 155.243 13.1403C154.957 13.387 154.717 13.751 154.523 14.2311C154.327 14.7117 154.172 15.2734 154.055 15.9163C153.938 16.5591 153.853 17.2601 153.802 18.0201C153.749 18.7797 153.724 19.5685 153.724 20.3871C153.724 21.6469 153.831 22.8121 154.045 23.8837C154.26 24.9549 154.613 25.88 155.107 26.6593C155.6 27.439 156.259 28.0492 157.084 28.4904C157.908 28.9321 158.938 29.153 160.171 29.153C161.353 29.153 162.356 29.0459 163.182 28.8313C164.006 28.6172 164.742 28.2311 165.392 27.6723C165.678 27.439 165.918 27.0717 166.113 26.5719C166.308 26.0721 166.47 25.494 166.6 24.8382C166.73 24.1824 166.824 23.4713 166.882 22.7051C166.941 21.9388 166.97 21.1663 166.97 20.3871ZM169.872 20.3871C169.872 21.9715 169.668 23.3998 169.259 24.6726C168.85 25.9454 168.243 27.0295 167.437 27.9258C166.632 28.8217 165.623 29.5102 164.409 29.9908C163.194 30.4709 161.782 30.7114 160.171 30.7114C158.536 30.7114 157.126 30.4647 155.944 29.9711C154.762 29.478 153.795 28.7795 153.042 27.8773C152.288 26.9747 151.733 25.8902 151.376 24.6241C151.019 23.3576 150.841 21.9456 150.841 20.3871C150.841 18.8282 151.022 17.4263 151.386 16.1794C151.75 14.9326 152.314 13.871 153.081 12.9943C153.847 12.1177 154.821 11.4455 156.003 10.9779C157.184 10.5107 158.587 10.2764 160.211 10.2764C161.82 10.2764 163.23 10.5107 164.438 10.9779C165.646 11.4455 166.652 12.1177 167.457 12.9943C168.262 13.871 168.866 14.9326 169.269 16.1794C169.671 17.4263 169.872 18.8282 169.872 20.3871V20.3871Z" fill="#388DA9"></path>
  <path fill-rule="evenodd" clip-rule="evenodd" d="M177.762 20.6401C178.982 20.6401 179.972 20.5686 180.733 20.426C181.493 20.2829 182.073 20.0817 182.476 19.822C182.658 19.7053 182.827 19.5493 182.983 19.3544C183.138 19.1594 183.272 18.9098 183.382 18.6044C183.492 18.2996 183.577 17.9294 183.635 17.4944C183.693 17.059 183.723 16.5366 183.723 15.9259C183.723 15.1596 183.613 14.5072 183.392 13.968C183.171 13.4293 182.853 12.9914 182.437 12.6534C182.022 12.3154 181.518 12.0687 180.927 11.9131C180.336 11.7571 179.665 11.6793 178.911 11.6793C178.534 11.6793 178.21 11.6889 177.937 11.7086C177.665 11.7278 177.327 11.7571 176.924 11.796V20.6401H177.762ZM179.73 22.0233H176.924V30.4387H174.216V10.5299C175.035 10.4651 175.937 10.4133 176.924 10.3744C177.911 10.335 178.878 10.3153 179.827 10.3153C180.983 10.3153 181.989 10.4392 182.846 10.6855C183.703 10.9327 184.411 11.2899 184.97 11.7571C185.528 12.2252 185.944 12.796 186.216 13.4716C186.489 14.1466 186.625 14.9129 186.625 15.7703C186.625 16.6014 186.512 17.3379 186.285 17.9813C186.057 18.6241 185.755 19.1859 185.379 19.666C185.002 20.1466 184.557 20.5561 184.044 20.8936C183.532 21.2311 182.995 21.5106 182.437 21.7309C183.034 22.7574 183.609 23.7344 184.161 24.663C184.713 25.5915 185.269 26.4096 185.827 27.1173C186.385 27.8255 186.95 28.3867 187.521 28.802C188.093 29.2183 188.703 29.4257 189.353 29.4257H189.547V30.3024C189.261 30.4066 188.898 30.4901 188.457 30.5554C188.014 30.6202 187.567 30.6529 187.113 30.6529C186.463 30.6529 185.911 30.565 185.456 30.3898C185.002 30.2145 184.557 29.8832 184.122 29.3964C183.687 28.9096 183.216 28.2374 182.71 27.3799C182.203 26.5229 181.58 25.4124 180.84 24.0489L179.73 22.0233V22.0233Z" fill="#388DA9"></path>
  <path fill-rule="evenodd" clip-rule="evenodd" d="M41.4879 18.1954C46.4739 14.8284 50.5793 12.3822 53.9017 10.5371C52.7197 9.63211 51.5208 8.77799 50.323 7.95892C46.688 9.60379 42.259 11.8363 36.9979 15.03C38.48 16.0195 39.9833 17.0676 41.4879 18.1954" fill="#388DA9"></path>
  <path fill-rule="evenodd" clip-rule="evenodd" d="M46.0432 5.24005C42.0948 6.73224 37.357 8.77704 31.902 11.8493C33.2732 12.6496 34.6737 13.5081 36.0948 14.4356C41.3967 11.2626 45.8896 9.07471 49.5831 7.46153C48.4006 6.68183 47.2228 5.93573 46.0432 5.24005" fill="#90918C"></path>
  <path fill-rule="evenodd" clip-rule="evenodd" d="M26.0725 11.9967C24.842 11.2971 23.6403 10.6624 22.4803 10.0685C15.7948 13.9877 8.89026 19.2132 2.63776 25.6938C3.46163 26.5666 4.32679 27.487 5.24045 28.4544C11.8842 21.549 19.1839 16.0872 26.0725 11.9967" fill="#90918C"></path>
  <path fill-rule="evenodd" clip-rule="evenodd" d="M0 22.8789C0.677919 23.6062 1.39953 24.3648 2.14898 25.1729C8.31363 18.7677 15.1475 13.5993 21.7841 9.7142C20.6976 9.16975 19.6491 8.66371 18.637 8.19464C12.2573 11.9342 5.8036 16.8583 0 22.8789" fill="#388DA9"></path>
  <path fill-rule="evenodd" clip-rule="evenodd" d="M29.0655 10.2337C30.3239 9.54712 31.553 8.91385 32.7432 8.32091C27.2824 5.43111 22.3857 3.54715 18.2015 2.17883C17.0925 2.73144 15.9705 3.31718 14.8408 3.94421C18.8559 5.35382 23.6292 7.28771 29.0655 10.2337" fill="#90918C"></path>
  <path fill-rule="evenodd" clip-rule="evenodd" d="M22.0616 0.381775C21.0164 0.837882 19.9559 1.32808 18.8799 1.84564C23.0915 3.21396 28.005 5.09168 33.4624 7.97043C34.5873 7.42838 35.6791 6.92571 36.7372 6.46432C31.3365 3.62061 26.3803 1.75058 22.0616 0.381775" fill="#388DA9"></path>
  <path fill-rule="evenodd" clip-rule="evenodd" d="M41.9325 39.3818C43.4098 37.8747 44.8127 36.431 46.1541 35.0603C38.5376 27.2997 30.5663 21.5 23.6686 17.0652C22.1437 18.1123 20.5973 19.2271 19.0398 20.4144C25.7282 25.1551 33.8618 31.1546 41.9325 39.3818" fill="#388DA9"></path>
  <path fill-rule="evenodd" clip-rule="evenodd" d="M28.884 13.7034C27.484 14.5479 26.0528 15.4587 24.5947 16.4382C31.5107 20.824 39.4331 26.5752 46.9545 34.2417C48.1961 32.9771 49.3676 31.7643 50.4886 30.6154C43.4074 23.4094 35.8077 17.8574 28.884 13.7034" fill="#90918C"></path>
</svg>
